<?xml version="1.0" standalone="no"?>
<!DOCTYPE svg PUBLIC "-//W3C//DTD SVG 20010904//EN"
 "http://www.w3.org/TR/2001/REC-SVG-20010904/DTD/svg10.dtd">
<svg version="1.0" xmlns="http://www.w3.org/2000/svg"
 width="4096.000000pt" height="4096.000000pt" viewBox="0 0 4096.000000 4096.000000"
 preserveAspectRatio="xMidYMid meet">

<g transform="translate(0.000000,4096.000000) scale(0.100000,-0.100000)"
fill="#000000" stroke="none">
<path d="M27655 32880 c-24 -25 -27 -34 -19 -48 17 -26 60 -27 76 -3 7 12 21
21 30 21 29 0 20 27 -14 44 -41 21 -39 21 -73 -14z"/>
<path d="M27626 32767 c-34 -34 -35 -66 -2 -60 27 6 49 51 36 73 -6 10 -14 7
-34 -13z"/>
<path d="M27560 32661 c-5 -11 -24 -28 -40 -38 -17 -10 -35 -32 -41 -50 -6
-18 -19 -38 -30 -43 -10 -6 -19 -16 -19 -23 0 -21 -49 -118 -78 -153 -15 -19
-39 -49 -54 -68 -16 -18 -28 -40 -28 -48 0 -8 -11 -29 -25 -48 -14 -19 -25
-44 -25 -56 0 -13 -8 -29 -18 -36 -9 -7 -30 -32 -45 -55 -15 -24 -31 -43 -36
-43 -14 0 -51 -65 -51 -89 0 -11 -5 -21 -10 -21 -12 0 -60 -49 -60 -61 0 -14
31 -39 49 -39 14 0 20 11 25 49 5 39 11 50 29 55 13 3 30 22 41 48 11 23 37
59 58 80 23 23 38 47 38 61 0 15 7 26 18 29 9 3 33 36 52 74 19 38 47 85 62
104 15 19 28 42 28 52 0 9 9 22 20 28 11 6 20 19 20 30 0 11 11 27 25 36 14 9
29 33 35 55 6 21 15 39 20 39 19 0 40 33 40 64 0 20 8 40 20 51 11 10 20 22
20 27 0 16 -29 8 -40 -11z"/>
<path d="M26982 31773 c-7 -3 -19 -21 -27 -41 -9 -19 -24 -42 -35 -49 -11 -8
-20 -19 -20 -24 0 -5 -8 -22 -18 -37 -10 -15 -33 -49 -51 -76 -33 -49 -35 -80
-5 -74 17 3 21 9 45 63 7 17 27 48 45 70 17 22 33 49 35 60 2 11 15 25 29 32
13 6 27 21 31 31 9 23 -10 52 -29 45z"/>
<path d="M19270 31671 c0 -25 19 -38 31 -20 12 19 6 33 -14 37 -11 2 -17 -3
-17 -17z"/>
<path d="M19268 31540 c-3 -69 -4 -197 -12 -1655 -11 -1819 -11 -2188 -1
-3245 9 -937 9 -983 4 -1096 -3 -67 -1 -85 14 -101 9 -11 17 -26 17 -34 0 -8
11 -27 24 -44 l24 -30 46 25 c36 19 46 30 46 50 0 14 11 42 25 62 14 20 25 46
25 56 0 11 7 25 15 32 8 7 15 18 15 26 0 7 6 17 14 21 16 9 46 66 46 86 0 8 9
17 20 20 26 7 40 47 33 90 -5 31 -2 36 22 48 16 8 40 37 57 69 16 30 38 58 48
62 27 10 35 52 20 99 -10 28 -10 43 -3 50 16 16 33 2 33 -27 0 -35 24 -26 28
10 2 15 -2 34 -8 41 -14 16 -5 65 10 65 6 0 16 -11 22 -25 9 -20 14 -22 25
-13 10 8 12 24 8 58 -5 42 -4 48 14 53 12 3 21 13 21 24 0 27 25 59 34 45 14
-23 21 -12 21 31 0 28 7 52 21 70 12 15 25 42 28 61 4 22 14 37 25 41 30 9 44
33 43 71 -1 28 3 37 18 41 11 3 16 11 13 19 -8 21 24 53 48 47 15 -4 19 0 19
23 0 54 -14 61 -60 30 -22 -15 -44 -35 -47 -44 -4 -9 -17 -30 -30 -45 -13 -16
-26 -41 -30 -55 -3 -15 -19 -43 -35 -62 -15 -19 -28 -43 -28 -53 0 -26 -18
-57 -34 -57 -8 0 -21 -16 -30 -35 -19 -39 -27 -42 -46 -20 -32 38 -52 3 -28
-50 9 -20 9 -28 0 -37 -20 -20 -69 48 -75 102 -5 48 5 145 16 156 4 4 15 0 25
-9 30 -27 42 -21 42 22 0 48 -11 57 -35 31 -28 -31 -55 -26 -55 10 0 36 -51
97 -97 117 -22 9 -33 20 -33 33 0 11 -4 20 -9 20 -4 0 -7 -18 -6 -40 1 -27 -5
-49 -19 -69 -25 -36 -41 -39 -50 -8 -11 41 -6 63 18 84 27 24 26 61 -4 88 -23
21 -39 2 -42 -51 -2 -26 -10 -45 -25 -57 -17 -14 -23 -29 -23 -60 -1 -23 -9
-76 -19 -117 l-18 -75 -7 65 c-4 36 -9 132 -11 213 -3 94 -10 167 -20 200 -10
34 -18 108 -21 212 -2 88 -9 300 -15 470 -19 583 -25 1230 -23 2535 l2 1305
-24 30 -24 30 -2 -35z m410 -4976 c-4 -24 -24 -29 -32 -8 -8 20 13 49 27 35 5
-5 7 -17 5 -27z m10 -288 c2 -9 1 -25 -3 -34 -6 -15 -9 -14 -26 7 -15 18 -17
27 -8 38 15 17 33 12 37 -11z m-261 -138 c-3 -8 -6 -5 -6 6 -1 11 2 17 5 13 3
-3 4 -12 1 -19z m140 -400 c-3 -8 -6 -5 -6 6 -1 11 2 17 5 13 3 -3 4 -12 1
-19z"/>
<path d="M26774 31452 c-23 -14 -124 -148 -130 -170 -15 -54 43 -49 65 5 18
45 36 71 64 97 37 34 37 92 1 68z"/>
<path d="M26612 31214 c-12 -8 -22 -24 -22 -34 0 -11 -11 -27 -25 -36 -14 -9
-25 -23 -25 -31 0 -8 -25 -43 -55 -76 -30 -34 -55 -68 -55 -76 0 -7 -15 -31
-32 -52 -60 -69 -78 -97 -78 -117 0 -10 -10 -27 -21 -38 -38 -33 -79 -96 -79
-120 0 -15 -9 -27 -27 -36 -17 -8 -32 -27 -39 -48 -6 -19 -21 -38 -33 -44 -12
-5 -24 -21 -27 -35 -4 -14 -19 -39 -33 -56 -24 -27 -43 -52 -76 -106 -36 -58
-154 -229 -177 -257 -15 -18 -28 -39 -28 -46 0 -8 -18 -35 -39 -61 -22 -26
-47 -64 -58 -84 -10 -20 -29 -48 -43 -62 -69 -73 -90 -100 -90 -118 0 -11 -8
-26 -18 -33 -9 -7 -22 -26 -27 -43 -6 -16 -20 -34 -33 -40 -16 -7 -22 -18 -22
-42 0 -19 -7 -37 -18 -45 -9 -7 -22 -23 -27 -34 -17 -38 -83 -102 -107 -106
-20 -3 -23 -9 -23 -45 0 -46 -10 -62 -27 -45 -22 22 -30 13 -28 -30 4 -68 3
-70 -23 -53 -28 18 -37 12 -37 -26 0 -21 -5 -28 -22 -31 -18 -2 -25 -13 -32
-44 -6 -26 -17 -44 -30 -50 -15 -6 -22 -20 -24 -45 -3 -30 -6 -36 -22 -32 -24
6 -54 -38 -45 -67 5 -16 2 -20 -14 -20 -17 0 -21 -6 -21 -30 0 -23 -6 -33 -25
-40 -24 -9 -39 -42 -33 -71 2 -9 -5 -14 -22 -14 -23 0 -25 -5 -30 -52 -4 -43
-8 -51 -20 -43 -22 13 -40 -7 -40 -46 0 -27 -4 -34 -19 -34 -22 0 -120 -147
-134 -202 -6 -26 -16 -38 -33 -42 -18 -5 -24 -13 -24 -32 0 -15 -12 -38 -30
-56 -16 -16 -30 -39 -30 -50 0 -11 -11 -28 -24 -39 -12 -10 -37 -48 -54 -84
-19 -38 -38 -65 -47 -65 -9 0 -20 -12 -26 -27 -6 -16 -21 -42 -35 -60 -13 -17
-24 -36 -24 -41 0 -5 -14 -26 -30 -47 -17 -21 -33 -50 -37 -64 -3 -14 -11 -33
-18 -41 -6 -8 -15 -23 -18 -32 -4 -10 -12 -18 -19 -18 -7 -1 -20 -15 -29 -33
-48 -93 -65 -122 -91 -150 -15 -17 -28 -36 -28 -42 0 -9 -24 -50 -78 -131 -6
-10 -16 -29 -21 -40 -5 -12 -16 -24 -24 -27 -8 -3 -17 -19 -20 -35 -3 -17 -20
-44 -37 -62 -16 -17 -30 -35 -30 -41 0 -14 -103 -171 -123 -188 -10 -7 -17
-22 -17 -32 0 -10 -13 -34 -30 -52 -16 -19 -30 -40 -30 -46 0 -7 -20 -43 -45
-81 -25 -38 -45 -73 -45 -78 0 -5 -9 -17 -19 -26 -11 -10 -25 -32 -32 -49 -7
-18 -20 -41 -30 -52 -23 -27 -89 -125 -89 -134 0 -4 -21 -38 -47 -77 -27 -38
-57 -87 -68 -109 -11 -22 -34 -58 -52 -81 -18 -23 -33 -47 -33 -54 0 -6 -13
-32 -30 -57 -16 -24 -30 -46 -30 -48 0 -2 -21 -34 -47 -70 -27 -37 -52 -74
-58 -83 -5 -9 -22 -36 -37 -59 -16 -23 -28 -46 -28 -51 0 -5 -25 -40 -55 -79
-30 -39 -55 -75 -55 -81 0 -5 -16 -30 -35 -55 -20 -26 -48 -70 -63 -98 -43
-82 -48 -89 -81 -123 -17 -17 -31 -36 -31 -41 0 -5 -24 -45 -53 -89 -29 -45
-61 -97 -71 -116 -11 -19 -31 -51 -46 -70 -14 -19 -34 -55 -45 -80 -10 -25
-33 -61 -50 -80 -18 -19 -42 -54 -53 -78 -12 -23 -40 -65 -62 -93 -22 -28 -43
-63 -46 -77 -10 -47 -14 -54 -33 -59 -11 -3 -36 -39 -62 -93 -26 -52 -53 -92
-66 -99 -13 -6 -23 -19 -23 -30 0 -10 -7 -24 -15 -31 -8 -7 -15 -17 -15 -23 0
-5 -23 -43 -51 -85 -28 -41 -60 -94 -70 -118 -11 -23 -23 -44 -28 -46 -18 -6
-81 -111 -81 -134 0 -13 -9 -28 -19 -34 -11 -5 -39 -49 -62 -97 -23 -49 -52
-99 -65 -112 -13 -13 -37 -52 -54 -88 -17 -35 -37 -66 -45 -69 -16 -6 -85
-145 -85 -170 0 -9 -18 -38 -40 -64 -22 -26 -40 -51 -40 -56 0 -10 -58 -103
-81 -129 -9 -11 -23 -39 -30 -62 -8 -30 -18 -43 -30 -43 -12 0 -32 -31 -69
-107 -29 -60 -55 -110 -59 -113 -15 -12 -41 -61 -41 -79 0 -11 -5 -23 -10 -26
-6 -4 -19 -24 -30 -45 -11 -22 -28 -47 -38 -57 -10 -10 -26 -37 -35 -60 -9
-23 -37 -69 -62 -102 -25 -33 -52 -80 -59 -104 -7 -25 -27 -65 -45 -90 -17
-25 -31 -48 -31 -51 0 -4 -13 -25 -30 -48 -16 -22 -30 -45 -30 -51 0 -5 -18
-31 -40 -57 -22 -26 -40 -54 -40 -61 0 -8 -13 -27 -30 -42 -18 -17 -30 -39
-30 -54 0 -14 -13 -37 -30 -55 -16 -16 -30 -37 -30 -45 0 -18 -66 -139 -80
-148 -6 -3 -10 -13 -10 -21 0 -8 -9 -34 -20 -57 -32 -66 -35 -108 -11 -148 12
-19 21 -43 21 -55 0 -11 11 -33 24 -49 13 -15 26 -40 29 -54 10 -47 67 -141
86 -141 29 0 45 41 32 86 -10 35 -9 41 11 57 11 10 28 16 37 15 13 -3 16 -20
16 -105 0 -98 -1 -101 -18 -82 -21 23 -40 24 -56 5 -17 -20 12 -76 39 -76 16
0 19 -5 13 -31 -4 -22 0 -38 16 -59 11 -16 21 -36 21 -45 0 -8 14 -29 30 -47
17 -17 30 -41 30 -53 0 -12 14 -41 30 -63 17 -23 30 -46 30 -50 0 -5 9 -17 20
-27 11 -10 20 -23 20 -30 0 -7 14 -31 30 -53 17 -23 30 -47 30 -53 0 -7 11
-27 25 -45 13 -18 32 -54 41 -81 9 -26 24 -57 34 -68 10 -11 39 -60 64 -108
26 -49 58 -104 72 -122 14 -18 30 -50 35 -70 6 -21 22 -48 35 -60 13 -12 24
-28 24 -35 0 -7 11 -25 25 -42 14 -16 25 -38 25 -48 0 -52 37 -68 64 -28 26
37 14 108 -17 108 -22 0 -66 81 -78 142 -9 46 -15 58 -30 58 -11 0 -19 7 -19
15 0 9 -12 38 -26 66 -30 60 -30 114 1 114 15 0 21 -10 28 -45 5 -25 15 -52
22 -60 7 -8 17 -28 22 -45 5 -17 21 -36 36 -43 18 -9 27 -21 27 -37 0 -50 31
-107 66 -121 34 -14 46 -34 74 -119 7 -22 19 -54 27 -72 7 -17 13 -36 13 -42
0 -6 10 -21 21 -32 12 -12 27 -43 33 -68 10 -37 17 -47 37 -49 34 -5 46 -17
53 -54 3 -18 16 -42 27 -55 14 -14 22 -36 23 -62 0 -35 4 -41 25 -43 21 -3 26
-11 36 -63 9 -43 19 -63 36 -75 39 -25 58 -48 65 -77 4 -16 17 -38 30 -51 17
-16 24 -34 24 -62 0 -29 6 -43 25 -57 20 -14 28 -33 38 -88 10 -56 16 -70 32
-73 31 -6 55 -32 55 -60 0 -15 13 -37 34 -57 24 -22 36 -44 41 -76 4 -24 16
-58 26 -75 10 -17 19 -42 19 -54 0 -13 8 -32 17 -42 15 -17 15 -20 1 -35 -15
-15 -19 -15 -51 1 -19 9 -40 16 -46 16 -16 0 -14 22 5 48 20 28 10 58 -21 66
-20 5 -25 13 -25 37 0 36 -16 69 -33 69 -13 0 -47 -54 -47 -75 0 -7 13 -26 29
-41 23 -21 28 -32 20 -45 -13 -26 -12 -31 24 -72 17 -20 50 -66 72 -102 22
-35 45 -65 52 -65 18 0 32 32 22 55 -4 11 -8 37 -8 57 -1 33 2 37 29 43 41 9
47 3 52 -52 6 -59 46 -124 95 -153 32 -19 34 -23 27 -53 -17 -67 -10 -88 45
-135 43 -37 51 -49 51 -79 0 -45 25 -98 68 -140 27 -28 32 -39 27 -62 -5 -22
0 -35 20 -59 14 -16 25 -37 25 -47 0 -24 19 -55 34 -55 20 0 44 -32 44 -60 0
-39 18 -75 58 -119 29 -33 37 -49 38 -85 1 -31 8 -52 24 -69 12 -13 22 -33 22
-44 0 -13 13 -29 35 -41 21 -13 37 -32 41 -49 4 -15 18 -45 31 -65 12 -21 23
-45 23 -54 0 -9 9 -27 20 -41 11 -14 20 -36 20 -49 0 -13 9 -33 21 -45 11 -11
23 -39 27 -62 6 -31 13 -43 27 -45 13 -2 29 -23 48 -62 15 -32 27 -64 27 -70
0 -7 14 -28 30 -47 17 -18 30 -41 30 -51 1 -31 55 -117 83 -130 17 -8 27 -21
27 -35 0 -12 9 -37 20 -55 11 -18 20 -46 20 -63 0 -21 10 -40 35 -65 34 -34
38 -43 50 -115 5 -36 31 -66 73 -88 13 -7 22 -21 22 -34 0 -12 7 -35 16 -52 9
-16 23 -43 32 -60 8 -16 25 -41 37 -55 32 -37 66 -100 59 -111 -3 -6 12 -29
34 -53 22 -24 43 -57 47 -74 3 -17 13 -36 21 -43 8 -7 14 -29 14 -56 0 -40 3
-45 30 -54 23 -9 30 -17 30 -37 0 -15 9 -41 19 -58 11 -18 21 -42 23 -55 2
-15 12 -25 27 -29 17 -4 27 -15 33 -37 5 -18 19 -41 33 -51 16 -13 25 -30 25
-47 0 -17 11 -36 30 -53 17 -15 30 -35 30 -45 0 -10 11 -33 25 -51 14 -18 25
-44 25 -58 0 -13 11 -35 25 -48 14 -13 25 -34 25 -46 0 -12 18 -51 40 -85 22
-35 44 -73 49 -84 5 -11 20 -36 34 -56 13 -20 30 -53 37 -73 6 -20 23 -44 36
-53 13 -8 24 -24 24 -35 0 -11 12 -34 26 -51 18 -21 24 -37 20 -53 -5 -17 2
-33 24 -57 16 -19 30 -41 30 -48 0 -8 11 -34 25 -58 14 -23 25 -51 25 -60 0
-10 9 -26 21 -37 20 -18 79 -100 79 -110 0 -14 65 -143 86 -171 13 -17 24 -38
24 -46 0 -8 10 -30 23 -49 13 -18 29 -49 36 -68 6 -19 20 -43 31 -55 10 -11
23 -39 28 -62 9 -40 23 -62 85 -138 20 -24 27 -41 22 -55 -4 -13 1 -31 14 -49
12 -16 21 -33 21 -38 0 -5 20 -36 45 -67 43 -56 45 -61 45 -125 0 -50 5 -73
21 -96 11 -16 24 -40 29 -51 10 -25 49 -39 56 -20 6 15 -39 108 -61 126 -19
16 -19 50 -1 75 12 16 16 17 30 6 9 -7 16 -19 16 -26 0 -7 7 -18 15 -25 18
-15 65 -5 65 15 0 7 8 20 18 27 33 26 102 163 102 204 0 19 7 39 16 46 19 15
75 73 102 104 18 20 18 22 1 43 -22 27 -16 74 13 103 11 11 18 32 18 58 0 34
4 41 24 46 29 7 56 44 56 77 0 13 11 34 25 47 14 13 25 32 25 42 0 10 9 23 20
30 21 14 27 43 10 53 -6 4 -8 12 -5 18 3 7 -2 2 -11 -11 -9 -12 -20 -22 -24
-22 -12 0 -23 56 -15 79 6 20 6 20 26 0 23 -23 37 -14 63 42 9 19 21 41 28 50
9 14 7 23 -15 49 -32 38 -34 58 -6 104 11 20 19 41 17 48 -3 7 6 36 19 63 12
28 23 62 23 78 0 22 -4 27 -24 27 -29 0 -61 -46 -71 -103 -4 -21 -13 -41 -20
-44 -7 -2 -21 -34 -31 -71 -9 -37 -23 -74 -29 -82 -7 -8 -16 -33 -20 -55 -4
-21 -14 -53 -22 -69 -13 -26 -28 -67 -92 -248 -10 -29 -25 -51 -38 -57 -13 -6
-23 -17 -23 -26 0 -20 -19 -53 -52 -90 -15 -17 -34 -50 -43 -75 -8 -24 -23
-52 -31 -61 -12 -14 -13 -22 -4 -38 15 -29 -21 -81 -54 -81 -20 0 -25 -7 -30
-43 -9 -55 -31 -87 -59 -87 -32 0 -47 18 -47 57 0 25 -10 43 -45 80 -28 29
-45 56 -45 71 0 14 -13 36 -30 52 -17 16 -30 38 -30 52 0 15 -13 36 -35 55
-19 17 -35 38 -35 45 0 19 -48 117 -71 147 -10 13 -24 41 -29 62 -6 22 -17 39
-25 39 -12 0 -35 55 -35 86 0 6 -7 17 -16 25 -9 7 -22 30 -31 50 -8 21 -21 40
-29 43 -8 3 -14 16 -14 29 0 13 -13 41 -30 62 -16 21 -30 47 -30 57 0 11 -13
32 -30 46 -19 17 -30 36 -30 53 0 15 -11 41 -25 57 -14 17 -25 37 -25 45 0 8
-7 20 -14 27 -8 6 -23 33 -32 58 -9 26 -22 52 -29 57 -6 6 -20 31 -29 57 -10
26 -24 49 -32 52 -8 3 -14 13 -14 23 -1 10 -9 34 -20 53 -10 19 -25 49 -33 65
-8 17 -26 41 -41 54 -14 14 -26 32 -26 41 0 10 -11 34 -25 54 -14 20 -25 42
-25 48 0 6 -13 26 -30 45 -16 18 -30 40 -30 47 0 7 -8 24 -19 37 -10 13 -22
39 -25 56 -4 18 -18 41 -30 51 -13 9 -26 34 -30 53 -3 20 -15 44 -26 54 -11
10 -20 26 -20 36 0 31 -12 50 -36 60 -19 7 -24 16 -24 43 0 22 -9 45 -25 64
-14 17 -25 35 -25 40 0 6 -16 28 -35 49 -19 21 -35 48 -35 60 0 23 -31 83 -60
118 -10 11 -22 35 -28 53 -6 18 -20 45 -32 59 -11 14 -20 30 -20 35 0 4 -11
26 -25 48 -14 22 -25 48 -25 58 0 23 -19 42 -35 36 -15 -6 -26 40 -18 77 4 22
-1 32 -26 50 -19 14 -31 32 -31 46 0 13 -10 29 -25 39 -17 11 -27 29 -31 56
-4 22 -14 43 -24 48 -10 5 -21 26 -24 45 -5 25 -14 39 -30 45 -19 7 -25 19
-30 59 -5 36 -12 51 -25 56 -12 4 -21 19 -25 45 -4 25 -16 49 -31 62 -14 12
-25 31 -25 43 0 12 -11 32 -25 45 -15 14 -25 35 -25 51 0 16 -8 34 -18 41 -23
16 -42 50 -42 76 0 10 -11 31 -25 46 -14 15 -25 36 -25 48 0 11 -11 31 -25 44
-14 13 -25 34 -25 49 0 14 -9 33 -20 42 -11 10 -20 27 -20 38 0 29 -23 70 -39
70 -8 0 -20 21 -28 47 -9 33 -27 61 -59 91 -42 39 -47 48 -50 98 -3 36 -10 59
-22 69 -10 8 -22 38 -27 65 -8 40 -14 51 -31 53 -17 2 -23 12 -27 43 -3 22
-12 48 -21 58 -9 10 -16 27 -16 39 0 12 -11 29 -24 37 -13 9 -34 42 -47 73
-12 31 -28 62 -35 68 -8 6 -14 21 -14 33 0 24 -4 25 -30 11 -26 -14 -45 11
-31 39 18 33 12 67 -19 106 -16 21 -30 46 -30 57 0 11 -11 22 -25 28 -20 8
-25 16 -25 43 0 19 -8 45 -18 58 -10 13 -23 36 -30 52 -6 15 -23 32 -37 37
-21 8 -25 16 -25 47 0 45 -8 59 -35 64 -15 3 -21 15 -26 47 -3 25 -14 50 -27
62 -12 12 -22 29 -22 39 0 10 -13 35 -30 56 -16 21 -30 44 -30 51 0 7 -19 40
-42 75 -59 85 -68 101 -68 125 0 12 -6 26 -13 32 -7 6 -30 45 -51 86 -23 44
-46 76 -57 79 -15 4 -19 14 -19 49 0 47 -13 68 -42 68 -17 0 -24 27 -18 69 1
7 -12 26 -29 42 -17 15 -31 34 -31 42 0 8 -8 25 -18 38 -11 13 -22 37 -26 52
-4 17 -16 31 -31 37 -14 5 -25 17 -26 27 -1 10 -2 27 -3 38 0 11 -11 24 -23
30 -24 10 -49 58 -39 74 4 5 -6 29 -21 53 -43 66 -51 80 -72 119 -11 19 -27
41 -35 48 -9 8 -16 23 -16 36 0 12 -13 42 -30 66 -16 24 -30 51 -30 59 0 8 -9
21 -20 28 -12 7 -22 28 -26 52 -4 23 -14 45 -24 50 -10 5 -25 26 -33 47 -8 21
-25 46 -36 55 -12 10 -21 26 -21 36 0 10 -15 33 -34 51 -19 19 -37 48 -40 66
-7 36 -52 125 -97 193 -16 24 -29 50 -29 59 0 9 -12 32 -27 51 -28 37 -83 139
-83 155 0 21 -73 125 -91 130 -11 3 -19 14 -19 26 0 32 -25 83 -76 156 -11 17
-24 53 -28 80 -4 34 -13 55 -27 66 -17 13 -20 23 -16 50 6 44 33 120 63 184
13 28 24 59 24 69 0 11 11 34 25 52 14 18 25 39 25 47 0 8 11 30 23 49 13 19
27 46 30 60 4 15 18 39 31 55 13 15 26 45 30 66 4 23 16 43 31 53 14 9 25 24
25 34 0 9 14 34 30 55 17 21 30 46 30 56 0 10 11 35 25 55 14 20 25 47 25 60
0 13 11 34 25 46 14 12 25 32 25 44 0 36 11 54 41 70 19 9 29 22 29 38 0 27
35 61 73 70 15 3 37 9 50 12 16 4 31 -2 50 -20 16 -14 40 -26 55 -27 15 -1
119 -3 232 -4 234 -5 296 -9 314 -24 21 -18 133 -26 151 -11 8 7 15 16 15 20
0 12 -71 37 -125 45 -79 11 -84 13 -87 48 -3 30 -6 33 -65 45 -47 10 -64 19
-69 34 -5 16 -11 19 -32 13 -53 -13 -86 -7 -110 22 -12 15 -27 34 -33 41 -14
17 -26 7 -34 -28 -8 -38 -49 -43 -59 -7 -11 42 -6 53 27 62 27 8 32 15 32 39
0 25 -5 31 -32 38 -18 5 -34 17 -38 28 -4 11 -11 20 -16 20 -13 0 -11 -64 3
-96 11 -23 10 -28 -11 -45 -23 -19 -56 -24 -85 -13 -23 9 -20 28 9 62 14 17
25 39 25 50 0 39 22 70 61 88 37 16 39 20 37 54 -1 29 6 47 30 78 18 22 32 47
32 56 0 20 29 35 86 43 49 6 64 -3 64 -43 0 -32 -18 -44 -52 -32 -36 13 -47 4
-24 -21 24 -26 13 -56 -24 -71 -36 -15 -37 -20 -7 -48 29 -28 51 -28 68 -1 14
20 15 20 64 4 28 -10 54 -24 58 -31 4 -8 21 -21 38 -29 24 -13 28 -19 19 -34
-12 -23 9 -45 34 -35 21 8 20 27 -3 48 -11 10 -21 27 -23 39 -2 14 -14 24 -35
29 -18 5 -34 17 -38 28 -4 11 -12 20 -20 20 -7 0 -23 8 -35 18 -33 27 -21 66
22 78 31 9 35 7 78 -37 25 -25 50 -54 56 -65 10 -18 13 -16 33 16 l21 35 -32
5 c-23 4 -37 13 -46 33 -9 18 -24 30 -43 34 -38 7 -45 20 -23 44 18 20 59 26
69 9 3 -5 31 -10 61 -10 61 0 114 -22 153 -64 16 -17 31 -24 43 -20 41 13 78
5 161 -35 48 -23 87 -46 87 -51 0 -8 90 -60 105 -60 3 0 5 6 5 13 0 6 4 18 9
26 10 15 37 4 84 -35 16 -13 37 -24 47 -24 9 0 23 -6 29 -14 6 -7 41 -31 76
-52 36 -20 65 -41 65 -46 0 -4 27 -21 59 -38 58 -29 60 -29 66 -10 4 11 13 20
21 20 23 0 92 -53 104 -81 12 -28 76 -63 114 -64 15 0 22 -7 24 -25 4 -26 29
-60 44 -60 4 0 16 9 25 20 19 22 43 27 43 9 0 -6 27 -38 59 -71 42 -42 73 -64
103 -72 38 -12 44 -17 48 -47 4 -27 11 -35 38 -43 31 -9 84 -58 94 -88 4 -10
11 -10 36 5 40 23 50 22 58 -7 5 -21 28 -35 57 -36 21 0 2 34 -33 58 -22 15
-42 36 -46 47 -8 23 -63 74 -81 75 -7 0 -30 18 -52 40 -22 22 -48 40 -58 40
-10 0 -24 9 -31 20 -7 11 -21 20 -31 20 -13 0 -21 8 -23 23 -2 12 -10 22 -20
22 -9 0 -24 8 -35 16 -10 9 -34 22 -54 28 -25 8 -40 21 -50 43 -9 22 -30 40
-62 56 -28 13 -52 33 -57 47 -11 29 -44 48 -69 40 -10 -3 -23 1 -30 8 -6 8
-29 22 -51 32 -22 10 -40 24 -40 32 0 7 -12 18 -27 24 -55 20 -135 64 -140 76
-6 15 -67 51 -117 69 -22 8 -54 25 -71 38 -17 13 -49 32 -71 41 -95 39 -114
50 -119 66 -3 9 -19 19 -35 23 -17 3 -54 16 -83 29 -28 13 -68 29 -87 37 -19
7 -42 18 -50 25 -8 6 -45 21 -83 34 -37 13 -84 32 -104 42 -21 11 -48 19 -60
19 -14 0 -23 6 -23 15 0 11 -7 14 -25 9 -27 -7 -114 21 -127 40 -17 25 -8 66
16 77 14 7 31 29 41 54 9 24 23 49 31 55 7 7 14 21 14 31 0 10 15 39 34 63 18
24 43 65 55 90 13 25 27 46 32 46 5 0 19 20 31 45 12 25 26 45 30 45 4 0 13
21 19 46 9 33 18 48 35 55 15 5 24 17 24 30 0 12 11 35 26 51 14 17 27 43 30
57 3 15 15 31 27 36 21 10 69 91 80 137 4 15 16 29 26 33 10 3 25 20 32 38 7
18 20 41 30 52 9 11 20 34 24 52 3 17 17 39 31 47 13 9 24 24 24 33 0 21 49
73 68 73 8 0 25 -10 38 -22 46 -46 60 -56 84 -63 29 -9 148 -61 170 -75 8 -5
51 -28 95 -50 44 -22 116 -60 160 -85 44 -25 96 -52 115 -61 19 -9 42 -20 50
-25 8 -5 34 -18 58 -29 24 -11 63 -33 87 -50 24 -16 50 -30 59 -30 8 0 19 -6
23 -13 4 -6 31 -23 58 -36 28 -14 64 -35 81 -48 17 -13 36 -23 42 -23 6 0 32
-18 57 -40 25 -22 53 -40 60 -40 8 0 19 -9 25 -20 6 -11 17 -20 24 -20 7 0 32
-13 54 -30 23 -16 46 -30 50 -30 5 0 18 -11 30 -25 12 -14 26 -25 32 -25 14 0
118 -80 124 -96 3 -8 15 -14 27 -14 11 0 34 -10 50 -22 54 -42 124 -98 140
-113 9 -8 21 -15 27 -15 6 0 18 -13 27 -30 9 -16 20 -30 25 -30 14 0 129 -89
171 -132 20 -21 44 -38 52 -38 9 0 19 -9 22 -20 3 -11 13 -20 20 -20 8 0 22
-11 31 -25 9 -14 22 -25 30 -25 7 0 30 -18 50 -39 20 -22 53 -52 75 -66 21
-15 41 -35 44 -44 3 -9 30 -34 60 -55 30 -22 55 -45 55 -53 0 -7 8 -17 18 -21
27 -10 74 -53 95 -84 9 -16 23 -28 30 -28 6 -1 30 -23 52 -50 22 -28 44 -50
48 -50 14 0 75 -67 79 -86 2 -10 12 -20 22 -22 20 -4 86 -68 86 -83 0 -4 8
-14 19 -21 10 -7 53 -54 95 -103 41 -50 80 -94 85 -100 45 -47 81 -89 81 -94
0 -4 21 -30 48 -58 87 -95 99 -110 135 -164 20 -30 45 -60 56 -67 12 -7 21
-18 21 -25 0 -7 10 -23 23 -35 29 -28 57 -63 112 -138 25 -34 52 -64 60 -68 8
-3 15 -14 15 -25 0 -11 9 -25 20 -31 11 -6 20 -17 20 -24 0 -8 16 -33 35 -56
19 -23 35 -47 35 -52 0 -6 9 -20 20 -32 60 -63 130 -160 130 -180 0 -9 14 -31
30 -49 17 -19 30 -42 30 -51 0 -9 11 -26 25 -38 14 -12 25 -26 25 -31 0 -5 14
-26 30 -47 17 -21 30 -44 30 -51 0 -7 7 -20 15 -29 8 -9 25 -34 37 -56 34 -59
60 -102 86 -141 12 -18 22 -38 22 -44 0 -5 14 -28 30 -51 17 -22 30 -49 30
-58 0 -10 7 -24 17 -31 9 -8 25 -34 36 -59 11 -25 28 -57 38 -72 11 -14 19
-34 19 -43 0 -9 14 -37 30 -62 17 -24 30 -48 30 -53 0 -5 11 -26 25 -46 14
-20 25 -47 25 -60 0 -13 4 -24 9 -24 7 0 19 -21 73 -133 10 -22 18 -47 18 -57
0 -9 11 -34 25 -54 14 -20 25 -44 25 -54 0 -9 11 -39 24 -67 54 -111 83 -182
90 -215 3 -19 17 -57 30 -85 25 -53 49 -120 71 -197 8 -26 20 -62 29 -80 8
-18 18 -44 21 -58 4 -14 16 -44 26 -67 11 -23 24 -66 30 -95 6 -29 22 -75 35
-102 14 -27 28 -70 31 -95 3 -25 10 -55 16 -66 6 -11 14 -43 18 -71 4 -27 17
-72 29 -99 12 -27 28 -81 35 -120 17 -96 62 -280 81 -335 9 -25 20 -70 24
-100 6 -49 46 -270 84 -470 8 -41 20 -120 27 -175 6 -55 17 -124 25 -152 7
-29 13 -84 12 -121 0 -37 5 -115 11 -173 44 -428 42 -1158 -5 -1459 -8 -52
-14 -111 -13 -130 1 -20 -3 -65 -9 -100 -20 -117 -32 -210 -32 -242 0 -17 -7
-54 -15 -82 -21 -73 -86 -399 -94 -478 -5 -37 -13 -73 -18 -80 -6 -7 -16 -49
-22 -93 -7 -44 -21 -100 -32 -124 -11 -25 -19 -66 -19 -97 0 -36 -7 -64 -20
-86 -11 -18 -20 -43 -20 -55 0 -13 -9 -37 -20 -55 -11 -18 -20 -50 -20 -70 0
-27 -6 -40 -20 -48 -13 -7 -20 -21 -20 -43 -1 -18 -7 -43 -15 -57 -8 -14 -14
-37 -15 -52 0 -14 -11 -39 -24 -55 -12 -15 -26 -39 -29 -53 -10 -43 -35 -123
-56 -182 -12 -32 -21 -66 -21 -77 0 -10 -6 -24 -14 -30 -8 -7 -18 -31 -21 -54
-4 -23 -18 -58 -31 -79 -13 -21 -24 -42 -24 -46 0 -5 -9 -19 -20 -32 -11 -13
-20 -29 -20 -35 0 -7 -6 -18 -14 -24 -8 -6 -19 -31 -25 -56 -6 -24 -15 -46
-20 -50 -12 -7 -52 -95 -71 -155 -8 -25 -25 -60 -37 -79 -13 -19 -23 -45 -23
-58 0 -14 -13 -36 -31 -52 -26 -25 -30 -33 -24 -60 6 -27 3 -33 -24 -49 -37
-23 -81 -85 -81 -116 0 -12 -11 -33 -25 -46 -14 -13 -25 -31 -25 -39 0 -9 -11
-33 -25 -53 -14 -20 -25 -49 -25 -63 0 -16 -12 -39 -31 -57 -26 -27 -29 -35
-20 -55 7 -15 7 -23 0 -23 -17 0 -59 -52 -59 -72 0 -12 -11 -24 -29 -31 -18
-6 -32 -22 -40 -42 -6 -18 -20 -40 -31 -50 -11 -10 -20 -31 -20 -46 0 -22 -6
-30 -25 -35 -27 -7 -41 -40 -32 -75 4 -16 1 -19 -16 -17 -19 3 -22 -3 -25 -34
-2 -28 -11 -43 -33 -58 -16 -12 -29 -30 -29 -40 0 -11 -10 -20 -26 -24 -21 -6
-25 -11 -20 -31 8 -32 -2 -55 -31 -66 -13 -5 -28 -20 -33 -34 -5 -14 -17 -25
-27 -25 -10 0 -28 -3 -40 -6 -20 -6 -23 -3 -23 23 0 18 9 38 24 52 14 13 26
38 28 55 2 22 11 34 31 44 15 7 34 26 41 41 8 15 22 33 30 40 9 8 16 28 16 47
0 26 6 36 28 46 15 7 28 23 30 36 2 12 12 27 23 32 14 8 18 17 13 34 -6 24 10
47 47 66 11 7 19 21 19 37 0 14 11 41 25 59 14 18 25 41 25 52 0 11 11 27 25
36 14 9 25 23 25 30 0 8 12 28 26 45 16 19 24 39 21 50 -3 13 7 30 29 52 19
18 34 40 34 49 0 8 11 32 25 52 14 20 25 48 25 61 0 13 13 36 30 52 17 16 30
35 30 42 0 24 58 130 75 136 9 4 15 19 15 41 0 22 9 45 24 63 13 16 27 46 31
66 4 21 16 42 26 48 11 5 19 17 19 26 0 9 13 39 28 67 16 28 32 65 36 81 4 17
13 37 21 45 16 18 45 103 45 131 0 12 11 34 25 51 15 17 25 42 25 60 0 18 10
42 25 60 14 17 25 42 25 59 0 16 8 37 18 47 11 11 22 41 26 68 3 26 13 52 21
57 8 4 15 18 15 30 0 12 7 31 15 41 8 11 15 36 15 55 0 20 9 51 20 69 11 18
20 50 20 71 0 25 7 44 19 55 21 19 45 130 40 181 -3 22 -9 30 -24 30 -20 0
-21 -4 -24 -67 -1 -14 -12 -40 -26 -56 -15 -18 -27 -46 -29 -69 -2 -21 -18
-69 -35 -106 -17 -36 -31 -83 -31 -103 0 -21 -8 -46 -20 -61 -11 -14 -20 -35
-20 -47 0 -12 -9 -29 -20 -39 -11 -9 -20 -29 -20 -46 0 -16 -6 -34 -14 -40 -7
-6 -19 -33 -26 -59 -7 -26 -21 -55 -31 -64 -10 -10 -21 -34 -25 -54 -3 -19
-13 -38 -20 -41 -8 -3 -14 -14 -14 -26 0 -11 -11 -44 -25 -73 -14 -30 -28 -68
-32 -85 -3 -17 -17 -42 -31 -56 -17 -18 -23 -31 -19 -51 4 -20 -2 -35 -24 -60
-16 -18 -29 -41 -29 -51 0 -10 -6 -24 -14 -30 -8 -6 -24 -33 -35 -59 -12 -26
-37 -73 -56 -105 -19 -32 -32 -64 -29 -72 4 -8 -1 -17 -9 -21 -9 -3 -19 -18
-22 -34 -3 -15 -26 -50 -50 -78 -24 -28 -51 -73 -61 -99 -9 -27 -21 -52 -26
-58 -4 -5 -8 -16 -8 -25 0 -23 -59 -140 -71 -140 -5 0 -9 -8 -9 -19 0 -21 -47
-75 -72 -84 -10 -4 -18 -15 -18 -26 0 -11 -13 -36 -30 -54 -16 -19 -30 -44
-30 -56 0 -12 -6 -21 -15 -21 -8 0 -15 5 -15 10 0 6 -5 10 -11 10 -6 0 -8 -15
-4 -44 8 -53 -7 -67 -40 -36 -28 26 -40 13 -31 -34 5 -24 1 -39 -14 -59 -11
-14 -20 -34 -20 -44 0 -11 -11 -30 -25 -43 -14 -13 -25 -33 -25 -45 0 -12 -11
-36 -24 -54 -14 -19 -28 -46 -31 -62 -5 -24 -12 -29 -35 -29 -16 0 -32 -5 -36
-12 -4 -7 -9 -50 -10 -96 -1 -46 -5 -86 -8 -90 -13 -12 -55 43 -85 111 -18 40
-36 80 -42 89 -5 10 -9 23 -9 29 0 6 -11 24 -25 41 -14 16 -25 39 -25 50 0 11
-11 31 -25 44 -17 15 -25 34 -25 56 0 18 -12 51 -25 73 -14 22 -25 49 -25 60
0 11 -9 35 -20 53 -11 18 -20 38 -20 45 0 7 -13 28 -30 47 -16 19 -29 40 -30
46 0 6 -13 28 -30 49 -16 21 -30 46 -30 55 0 26 -29 90 -40 90 -6 0 -10 11
-10 23 0 13 -13 42 -28 63 -16 21 -31 47 -35 57 -5 15 -13 17 -36 12 l-30 -6
6 55 c6 54 5 54 -23 58 -26 3 -29 7 -26 33 4 53 -6 78 -30 72 -40 -11 -58 9
-58 63 0 74 -13 100 -51 100 -29 0 -30 -1 -24 -32 8 -36 42 -105 56 -114 5 -3
9 -27 9 -53 0 -38 5 -52 21 -62 13 -9 22 -29 26 -56 3 -24 12 -48 19 -54 8 -6
14 -17 14 -23 0 -7 14 -25 30 -41 17 -16 30 -39 30 -51 0 -12 11 -46 25 -76
14 -29 28 -70 31 -90 4 -21 10 -38 15 -38 28 0 80 -198 54 -206 -10 -3 -95
163 -95 185 0 6 -7 11 -16 11 -8 0 -20 14 -25 30 -6 17 -15 30 -20 30 -20 0
-21 -33 -1 -59 11 -16 26 -47 32 -70 6 -23 20 -51 31 -62 10 -10 19 -28 19
-39 0 -25 27 -80 39 -80 5 0 14 -21 21 -47 7 -27 19 -55 27 -64 7 -8 13 -20
13 -26 0 -5 9 -18 20 -28 11 -10 20 -22 20 -26 0 -5 11 -33 25 -63 14 -30 25
-59 25 -64 0 -6 6 -12 13 -15 7 -2 21 -22 32 -43 11 -22 25 -46 30 -54 6 -8
17 -33 24 -55 7 -22 19 -47 26 -55 6 -8 18 -31 25 -50 7 -19 19 -42 25 -50 7
-8 16 -25 20 -38 3 -12 18 -35 31 -52 14 -16 27 -39 29 -51 2 -12 13 -28 24
-35 11 -8 27 -38 36 -67 10 -28 23 -59 30 -67 8 -8 21 -35 30 -60 10 -25 26
-63 36 -86 11 -22 19 -47 19 -55 0 -8 9 -27 20 -44 11 -16 20 -42 20 -56 0
-17 8 -29 23 -36 16 -8 28 -26 36 -56 14 -48 60 -107 84 -107 28 0 38 -55 19
-105 -12 -34 -13 -48 -4 -57 9 -9 13 -7 17 5 3 9 7 24 10 33 10 30 40 10 50
-34 6 -24 16 -47 23 -51 9 -5 12 -34 10 -97 -2 -93 3 -114 29 -114 10 0 14 6
10 20 -6 24 8 37 17 15 3 -8 15 -15 26 -15 25 0 60 -54 60 -92 0 -21 -5 -28
-19 -28 -27 0 -34 -14 -26 -51 8 -37 27 -33 39 9 11 38 21 40 37 9 7 -12 15
-24 19 -27 3 -3 14 -26 24 -52 17 -46 17 -50 1 -93 -14 -36 -15 -48 -5 -60 7
-8 16 -12 21 -9 5 3 24 2 43 -1 27 -6 37 -14 46 -38 6 -18 18 -45 26 -62 10
-19 11 -26 3 -18 -7 7 -21 13 -31 13 -11 0 -23 14 -32 35 -8 19 -20 35 -25 35
-22 0 -10 -58 19 -95 17 -21 30 -43 30 -49 0 -7 6 -18 12 -24 10 -10 16 -8 30
10 l18 23 0 -22 c0 -12 -9 -27 -20 -33 -25 -14 -26 -37 -1 -45 40 -12 71 -46
71 -76 0 -22 6 -30 24 -35 15 -3 27 -15 30 -30 5 -18 13 -24 34 -23 43 1 63
13 77 46 18 43 5 62 -30 43 -23 -12 -28 -12 -35 0 -14 21 -12 38 6 69 13 22
14 34 5 68 -7 26 -19 44 -31 48 -12 4 -24 22 -32 47 -6 22 -20 45 -30 52 -10
6 -18 20 -18 32 0 12 -11 36 -24 55 -14 19 -33 52 -44 74 -10 22 -26 46 -35
54 -10 7 -17 22 -17 33 0 11 -13 36 -30 55 -16 18 -30 42 -30 51 0 10 -20 49
-45 86 -25 38 -45 71 -45 74 0 3 -6 13 -13 21 -7 9 -22 36 -32 61 -10 25 -28
59 -40 75 -11 17 -26 41 -33 55 -7 14 -19 36 -27 50 -8 14 -15 35 -15 47 0 13
-11 30 -24 38 -14 9 -27 30 -30 49 -4 19 -13 39 -21 46 -8 7 -15 25 -15 39 0
15 -11 42 -24 60 -13 18 -30 52 -37 77 -7 24 -19 44 -26 44 -8 0 -13 13 -13
34 0 25 -8 42 -32 65 -24 24 -34 43 -38 79 -3 29 -10 46 -18 45 -7 -2 -18 -4
-24 -5 -8 -2 -15 15 -18 49 -3 31 -14 64 -28 82 -12 17 -22 40 -22 51 0 12 -7
35 -16 52 -20 38 -11 75 21 90 31 14 55 4 55 -24 0 -15 22 -43 64 -83 38 -36
65 -71 68 -85 4 -32 42 -40 57 -12 6 11 24 25 41 30 22 8 30 17 30 34 0 30 8
40 53 67 29 18 37 28 33 44 -5 20 14 57 49 93 79 83 107 127 129 198 4 13 13
17 27 13 23 -6 39 24 39 74 0 22 5 29 20 29 14 0 20 7 20 21 0 12 8 23 19 26
14 3 20 17 24 51 3 30 12 52 26 63 12 10 21 21 21 25 0 10 59 104 82 130 10
11 16 23 13 26 -3 3 7 27 22 54 16 27 30 59 30 71 3 38 36 96 79 139 23 22 44
51 46 65 3 23 12 26 48 18 12 -3 14 6 12 46 -2 28 -6 53 -10 56 -4 4 -24 9
-45 12 -34 5 -38 4 -31 -11 4 -9 9 -30 12 -45 4 -23 0 -29 -18 -34 -23 -6 -40
-39 -40 -79 0 -28 -12 -31 -35 -8 -16 17 -13 66 6 90 5 6 4 24 -3 42 -17 44 2
84 39 80 21 -2 28 2 33 23 4 15 17 40 29 56 20 26 21 33 10 81 -14 58 -10 69
19 53 29 -16 72 -14 72 3 0 7 -11 21 -25 30 -32 21 -32 40 3 65 23 16 27 26
24 53 -8 72 44 122 69 66 7 -18 8 -11 4 27 -3 28 -7 59 -8 70 -2 21 15 24 62
9 21 -6 23 -5 17 12 -4 10 -10 47 -13 81 -5 58 -4 65 19 86 26 24 56 106 60
166 2 22 10 38 23 45 31 17 35 27 35 94 0 62 3 66 40 63 12 -1 15 13 17 69 1
66 3 72 37 103 25 24 34 39 30 54 -3 12 0 31 6 43 7 13 16 46 20 74 13 74 32
137 53 166 10 15 17 43 17 70 0 33 5 50 20 63 15 13 20 29 20 67 0 31 8 70 21
97 29 63 49 145 49 197 0 25 6 49 14 55 7 6 16 36 20 65 3 30 17 101 30 158
14 56 27 130 30 163 3 33 15 89 26 125 17 57 37 166 70 385 9 59 16 126 42
390 16 167 16 741 0 995 -7 107 -15 258 -18 335 -4 95 -12 158 -24 195 -26 79
-43 220 -35 288 6 50 3 64 -19 107 -21 40 -28 74 -37 170 -5 66 -19 148 -30
183 -10 34 -19 77 -19 95 0 18 -9 49 -20 69 -12 23 -22 66 -25 110 -9 114 -15
138 -36 159 -16 16 -23 41 -29 111 -6 61 -14 96 -26 109 -11 13 -16 35 -16 73
0 63 6 76 32 76 22 0 40 -46 40 -102 0 -25 8 -50 20 -65 16 -20 20 -41 20 -99
0 -58 4 -77 19 -91 20 -19 39 -89 45 -163 1 -25 12 -63 24 -85 11 -22 23 -63
27 -90 4 -28 19 -97 33 -155 14 -58 26 -130 27 -160 1 -33 10 -71 22 -95 16
-31 22 -66 26 -153 4 -86 10 -121 25 -145 20 -35 38 -226 33 -357 -1 -36 6
-96 15 -135 19 -83 33 -242 38 -455 4 -186 -10 -675 -26 -850 -6 -69 -15 -170
-19 -225 -5 -55 -11 -122 -13 -150 -2 -27 -8 -63 -14 -80 -23 -63 -34 -159
-22 -189 8 -22 14 -26 22 -18 14 14 38 142 43 228 2 34 11 79 20 100 15 35 46
316 43 384 -1 14 4 70 12 125 35 271 -4 1498 -51 1587 -5 9 -13 84 -17 167 -7
124 -12 155 -27 171 -15 17 -19 39 -20 123 -1 92 -4 107 -30 157 -28 51 -30
62 -30 170 0 74 -5 123 -13 138 -7 12 -17 62 -23 110 -13 123 -18 140 -40 147
-17 6 -19 16 -19 83 0 84 -8 106 -33 96 -15 -5 -17 4 -17 84 0 95 -8 152 -20
152 -4 0 -10 -9 -13 -20 -3 -11 -10 -20 -16 -20 -8 0 -11 22 -10 63 2 34 -3
78 -9 97 -32 99 -42 136 -42 157 0 31 -23 103 -32 103 -5 0 -8 8 -8 19 0 24
-27 88 -51 123 -13 17 -19 43 -19 80 0 29 -6 62 -13 74 -39 67 -68 127 -86
178 -11 32 -28 64 -37 71 -9 6 -14 17 -10 23 3 6 2 13 -3 16 -5 3 -12 18 -15
33 -4 16 -15 46 -25 68 -10 22 -21 48 -24 57 -4 11 -15 17 -29 15 -21 -2 -23
3 -26 45 -2 26 1 55 6 65 8 14 11 11 17 -15 10 -47 25 -49 25 -3 0 34 -3 41
-20 41 -13 0 -22 9 -26 28 -3 15 -7 32 -9 39 -2 7 -24 21 -50 33 -49 22 -53
30 -30 54 24 24 17 52 -20 80 -22 17 -39 41 -47 67 -7 26 -20 44 -34 50 -29
10 -58 54 -50 74 3 9 0 15 -9 15 -10 0 -15 11 -15 34 0 40 -14 53 -36 35 -19
-16 -28 -6 -15 19 17 32 -8 114 -40 129 -49 24 -76 57 -83 106 -4 26 -12 47
-17 47 -5 0 -19 15 -30 34 -11 19 -29 36 -39 39 -15 4 -20 14 -20 41 0 22 -7
43 -19 55 -13 13 -16 22 -8 30 11 11 -7 41 -25 41 -16 0 -39 -71 -33 -100 5
-22 1 -31 -17 -44 -12 -9 -28 -16 -35 -16 -12 0 -93 113 -93 129 0 4 -14 20
-30 36 -31 30 -70 100 -70 127 0 9 -17 33 -38 54 -21 22 -47 58 -57 82 -10 23
-22 42 -26 42 -4 0 -10 9 -14 19 -3 10 -17 22 -30 25 -21 5 -25 13 -25 42 0
24 -5 37 -18 42 -29 11 -92 87 -92 110 0 12 -6 25 -13 29 -7 4 -20 20 -30 36
-10 15 -25 27 -35 27 -11 1 -29 25 -51 70 -22 44 -41 70 -51 70 -20 0 -40 19
-40 38 0 15 -53 63 -82 74 -11 5 -18 17 -18 36 0 17 -10 38 -25 52 -14 13 -25
29 -25 37 0 7 -16 19 -35 27 -23 10 -35 22 -35 34 0 11 -16 30 -40 46 -22 14
-47 38 -57 53 -10 16 -20 30 -24 33 -3 3 -11 15 -17 27 -7 12 -22 23 -34 25
-16 2 -24 11 -26 30 -2 16 -11 30 -22 33 -10 3 -21 17 -24 30 -5 21 -10 24
-36 18 -27 -5 -30 -3 -30 21 0 51 -43 108 -75 100 -18 -4 -28 3 -51 40 -20 30
-37 46 -54 48 -17 2 -26 10 -28 25 -5 31 -56 83 -81 83 -14 0 -25 9 -31 24 -5
13 -15 28 -23 33 -8 4 -16 17 -19 28 -2 14 -11 20 -28 20 -36 0 -48 11 -43 38
4 18 0 26 -16 30 -12 3 -21 12 -21 21 0 11 -9 16 -30 16 -20 0 -33 6 -37 18
-9 25 -61 72 -81 72 -21 1 -57 29 -65 53 -4 9 -18 22 -32 27 -14 5 -25 14 -25
19 0 5 -13 14 -29 19 -16 6 -34 20 -41 31 -6 12 -18 21 -27 21 -9 0 -57 42
-107 93 -52 53 -109 101 -133 112 -30 14 -43 26 -43 41 0 16 -9 22 -42 30 -33
7 -44 14 -48 34 -5 20 -12 25 -40 26 -19 1 -36 6 -38 13 -7 22 -46 52 -98 76
-35 16 -51 29 -50 41 1 15 -10 25 -44 38 -8 4 -28 15 -45 25 -16 11 -38 20
-47 20 -10 1 -20 12 -24 25 -4 18 -25 34 -80 60 -41 21 -74 43 -74 51 0 15
-21 22 -75 27 -23 2 -29 7 -27 22 4 22 -13 36 -46 36 -12 0 -25 6 -27 13 -3 6
-36 30 -74 51 -37 22 -72 49 -77 60 -7 17 -20 22 -62 24 -52 3 -54 4 -48 28 5
20 3 24 -15 24 -12 0 -38 13 -58 28 -20 16 -56 40 -81 53 -25 14 -54 30 -65
36 -11 7 -27 14 -35 17 -8 4 -27 14 -41 24 -14 9 -43 29 -65 43 -22 15 -45 34
-53 43 -9 10 -21 14 -38 10 -18 -5 -31 0 -51 19 -39 37 -100 59 -152 55 -37
-2 -45 0 -48 15 -8 38 9 86 43 122 19 20 35 42 35 49 0 7 14 32 30 54 17 23
30 44 30 46 0 6 41 67 58 86 7 8 21 31 30 50 11 21 27 37 42 40 21 5 25 11 22
37 -3 25 3 37 27 59 19 17 31 37 31 53 0 13 9 34 19 45 20 22 55 77 70 113 6
12 19 27 31 33 11 6 20 17 20 25 0 8 14 30 30 48 17 19 30 46 30 60 0 15 9 31
24 41 14 8 37 39 51 68 15 29 35 62 45 73 10 11 27 38 39 60 50 93 73 131 91
150 11 12 20 25 20 29 0 4 15 26 33 49 19 23 44 63 56 90 13 26 27 47 32 47 4
0 14 21 22 46 9 30 21 49 37 57 17 9 26 22 28 44 2 22 13 39 33 53 19 14 29
30 29 46 0 14 7 27 15 30 8 4 15 11 15 16 0 6 14 30 30 55 17 24 30 48 30 52
0 5 7 15 17 22 9 8 25 33 35 56 10 23 27 45 38 48 13 4 20 15 20 31 0 13 15
41 35 63 19 21 35 44 35 50 0 6 17 34 39 61 21 26 55 82 75 123 20 41 47 82
61 91 14 9 25 22 25 30 0 7 14 30 30 51 17 21 33 49 37 63 3 14 14 34 25 46
39 44 45 52 58 95 8 25 22 46 32 49 9 2 28 25 41 51 27 51 42 77 105 180 23
38 42 74 42 79 0 5 9 12 19 15 11 2 28 22 39 44 12 22 28 45 36 52 9 8 16 24
16 37 0 13 15 38 35 58 19 20 35 43 35 52 0 9 23 45 51 81 27 35 65 92 82 127
18 34 47 80 65 103 17 22 32 45 32 50 0 6 9 18 20 28 12 10 29 38 39 61 11 23
28 47 38 53 11 5 26 29 33 51 8 23 20 44 27 47 8 3 27 31 44 62 16 31 47 81
69 111 23 30 45 64 49 75 5 11 30 51 55 88 25 38 46 70 46 72 0 5 66 105 95
145 40 54 70 99 116 175 23 39 48 75 54 80 6 6 29 37 49 70 21 33 47 72 57 87
11 15 19 32 19 37 0 6 13 24 30 41 16 17 33 42 36 55 7 27 56 85 72 85 5 0 12
14 16 31 3 17 19 43 36 59 16 15 30 32 30 37 0 5 25 46 55 93 30 47 55 88 55
91 0 4 8 9 18 12 11 2 21 17 25 33 5 25 30 64 76 120 5 6 12 21 16 34 4 13 20
34 36 48 19 16 29 33 29 52 0 22 5 29 29 33 26 6 30 12 36 52 6 35 11 45 26
45 11 0 22 8 25 18 6 18 23 58 44 103 7 15 23 32 36 38 14 6 24 19 24 31 0 11
10 26 23 35 13 8 29 32 36 52 8 21 28 56 46 78 18 22 40 54 49 72 9 17 25 38
36 46 11 7 21 24 23 38 3 17 11 25 31 27 25 3 26 6 20 40 -8 46 -6 44 -32 26z
m-4242 -8234 c0 -5 -4 -10 -9 -10 -6 0 -13 5 -16 10 -3 6 1 10 9 10 9 0 16 -4
16 -10z m411 -190 c27 -15 24 -39 -8 -51 -22 -8 -30 -7 -40 7 -31 43 -2 70 48
44z m-1533 -122 c7 -7 12 -23 12 -36 0 -20 -4 -23 -27 -20 -21 2 -29 9 -31 27
-5 34 23 52 46 29z m-671 -953 c8 -22 -6 -33 -17 -15 -13 20 -12 30 0 30 6 0
13 -7 17 -15z m-97 -604 c14 -35 5 -58 -16 -40 -15 12 -20 69 -5 69 5 0 14
-13 21 -29z m6257 -126 c3 -78 6 -91 28 -113 14 -14 25 -33 25 -43 0 -28 11
-49 26 -49 17 0 44 -39 44 -65 0 -11 14 -32 32 -46 31 -26 32 -27 15 -53 -24
-35 -49 -35 -46 2 4 46 0 57 -23 67 -14 6 -25 23 -29 42 -3 17 -18 46 -33 63
-14 17 -26 42 -26 54 0 22 -30 67 -85 129 -14 15 -25 33 -25 40 0 24 60 69 84
63 5 -1 11 -42 13 -91z m-6047 -132 c-1 -21 -19 -35 -39 -28 -32 10 -26 35 9
35 17 0 30 -3 30 -7z m10 -127 c0 -18 -3 -36 -7 -39 -20 -21 -53 63 -38 100 6
16 8 16 26 -6 10 -13 19 -38 19 -55z m108 -234 c2 -7 -3 -12 -12 -12 -9 0 -16
7 -16 16 0 17 22 14 28 -4z m92 -47 c0 -8 13 -30 30 -48 26 -31 28 -36 15 -53
-8 -10 -15 -31 -15 -45 0 -26 -23 -45 -40 -34 -5 3 -8 18 -8 34 1 15 -7 42
-17 59 -15 25 -17 36 -8 54 6 13 14 31 17 41 6 20 26 14 26 -8z m6100 -44 c7
-13 7 -22 0 -26 -15 -9 -30 4 -30 26 0 25 16 25 30 0z m-5983 -166 c2 -33 4
-76 5 -95 2 -25 -1 -35 -11 -35 -40 0 -76 148 -45 180 32 31 49 15 51 -50z
m6077 -9 c26 -35 46 -68 46 -73 0 -14 -39 -48 -46 -40 -11 10 -62 166 -56 172
9 8 9 8 56 -59z m121 -306 c-5 -8 -11 -8 -17 -2 -6 6 -7 16 -3 22 5 8 11 8 17
2 6 -6 7 -16 3 -22z m9 -56 c8 -21 1 -28 -18 -21 -9 4 -13 13 -10 22 8 20 20
19 28 -1z m72 -99 c28 -41 35 -61 31 -82 -25 -119 -22 -116 -36 -29 -7 43 -21
93 -32 110 -10 17 -19 37 -19 44 0 26 21 10 56 -43z m147 -395 c50 -25 47 -92
-5 -98 -21 -3 -26 2 -32 29 -8 43 -8 91 2 87 4 -2 19 -10 35 -18z m51 -166 c8
-21 -3 -84 -15 -84 -19 0 -31 44 -20 73 12 31 26 35 35 11z m44 -116 c14 -14
16 -116 3 -137 -15 -24 -39 4 -47 55 -11 75 10 116 44 82z m56 -184 c3 -9 6
-34 6 -57 0 -49 -14 -77 -29 -62 -13 13 -26 99 -18 119 8 21 33 20 41 0z
m-754 -6849 c9 -10 9 -28 1 -67 -5 -29 -9 -64 -8 -77 3 -38 -20 -35 -33 4 -9
27 -9 40 -1 48 6 6 11 33 11 59 0 49 8 59 30 33z m-55 -220 c0 -27 -3 -30 -36
-33 -30 -3 -37 1 -42 18 -10 38 2 51 42 48 33 -3 36 -6 36 -33z m-69 -152
c-11 -11 -19 6 -11 24 8 17 8 17 12 0 3 -10 2 -21 -1 -24z m-46 -52 c0 -6 -5
-13 -10 -16 -15 -9 -43 3 -35 15 8 13 45 13 45 1z m-1042 -130 c3 -16 -1 -22
-10 -19 -7 3 -15 15 -16 27 -3 16 1 22 10 19 7 -3 15 -15 16 -27z m68 -95 c3
-8 4 -25 2 -38 l-3 -23 -18 27 c-18 26 -16 48 4 48 5 0 12 -6 15 -14z m52
-117 c2 -23 2 -23 -13 -5 -18 24 -20 39 -2 34 6 -3 13 -15 15 -29z m392 -124
c0 -8 -4 -15 -10 -15 -5 0 -10 7 -10 15 0 8 5 15 10 15 6 0 10 -7 10 -15z"/>
<path d="M25385 29480 c3 -5 8 -10 11 -10 2 0 4 5 4 10 0 6 -5 10 -11 10 -5 0
-7 -4 -4 -10z"/>
<path d="M20865 27869 c-4 -6 -5 -13 -2 -16 7 -7 27 6 27 18 0 12 -17 12 -25
-2z"/>
<path d="M20622 27518 c-14 -14 -16 -28 -3 -28 5 0 11 9 14 20 6 23 5 24 -11
8z"/>
<path d="M20526 27401 c-4 -5 -2 -12 3 -15 5 -4 12 -2 15 3 4 5 2 12 -3 15 -5
4 -12 2 -15 -3z"/>
<path d="M20467 27312 c-9 -10 -17 -25 -17 -33 0 -27 -39 -79 -59 -79 -15 0
-22 -9 -27 -34 -13 -70 32 -79 59 -12 13 30 27 48 47 56 22 9 31 21 36 45 12
63 -8 92 -39 57z"/>
<path d="M20312 27098 c-7 -7 -12 -20 -12 -31 0 -10 -13 -32 -30 -49 -21 -21
-30 -39 -30 -62 0 -24 -7 -38 -30 -54 -33 -25 -39 -49 -13 -59 19 -7 53 29 53
58 0 10 4 19 9 19 13 0 71 87 71 106 0 8 5 25 11 36 14 26 -9 56 -29 36z"/>
<path d="M22785 25104 c-31 -28 -35 -36 -25 -53 13 -25 59 -51 87 -48 23 1 85
-16 153 -43 115 -45 183 -60 193 -42 3 4 2 25 -2 47 -6 37 -9 40 -47 48 -29 5
-44 15 -52 32 -8 18 -20 25 -39 25 -16 0 -41 8 -58 18 -28 18 -48 23 -137 42
-33 6 -41 4 -73 -26z"/>
<path d="M15107 23623 c-11 -10 -8 -93 3 -93 6 0 10 23 10 50 0 51 -1 55 -13
43z"/>
<path d="M15107 23314 c-4 -21 -7 -117 -7 -212 0 -155 -2 -178 -21 -219 -20
-44 -20 -48 -5 -75 15 -24 16 -38 6 -110 -7 -46 -13 -209 -15 -363 -1 -179 -6
-290 -14 -308 -6 -16 -11 -48 -11 -72 0 -44 -12 -62 -41 -57 -32 5 -189 -177
-189 -221 0 -10 -11 -22 -25 -27 -14 -5 -25 -16 -25 -23 0 -8 -10 -22 -21 -33
-12 -10 -30 -37 -41 -59 -20 -42 -26 -54 -71 -122 -15 -24 -27 -52 -27 -63 0
-11 -7 -20 -16 -20 -8 0 -20 -13 -25 -30 -8 -22 -17 -30 -35 -30 -29 0 -47
-38 -38 -76 6 -25 -4 -32 -22 -14 -7 7 -16 4 -27 -8 -16 -17 -16 -20 -2 -32
25 -21 19 -69 -10 -82 -16 -7 -29 -25 -37 -50 -6 -22 -19 -43 -29 -49 -10 -5
-21 -18 -24 -29 -3 -11 -15 -20 -25 -20 -11 0 -22 -10 -26 -22 -4 -13 -24 -40
-45 -60 -22 -21 -39 -47 -39 -57 0 -11 -8 -26 -18 -33 -21 -16 -71 -90 -94
-142 -11 -23 -18 -59 -17 -87 2 -34 -3 -55 -15 -68 -9 -10 -21 -32 -25 -47 -4
-16 -19 -35 -33 -42 -14 -7 -30 -25 -36 -40 -11 -31 -69 -96 -94 -105 -27 -9
-34 -55 -14 -88 13 -22 14 -33 6 -49 -14 -26 -30 -17 -30 16 0 34 -28 28 -52
-11 -34 -56 -41 -74 -35 -89 10 -26 27 -18 27 13 0 33 11 44 34 35 27 -10 19
-51 -14 -75 -16 -13 -35 -39 -41 -58 -6 -20 -19 -42 -28 -49 -12 -10 -16 -30
-16 -85 0 -68 -1 -72 -27 -85 -16 -7 -28 -19 -28 -26 0 -8 -6 -19 -13 -25 -11
-8 -16 -5 -25 15 -14 30 -32 23 -32 -12 0 -21 9 -29 33 -25 11 2 9 -27 -4 -52
-6 -12 -32 -44 -58 -70 -25 -26 -44 -50 -42 -53 1 -3 -2 -17 -7 -32 -6 -15
-14 -53 -17 -86 -5 -44 -11 -59 -25 -63 -13 -4 -20 -19 -25 -58 -3 -30 -15
-65 -27 -80 -11 -14 -24 -41 -29 -60 -8 -28 -15 -35 -34 -35 -20 0 -26 -7 -36
-42 -6 -23 -20 -49 -30 -56 -17 -12 -19 -22 -13 -91 7 -81 -2 -105 -30 -82 -7
6 -16 8 -19 4 -9 -8 -9 -66 -1 -88 6 -15 8 -15 24 0 17 15 19 15 25 -4 10 -33
-3 -61 -30 -61 -32 0 -45 -27 -45 -90 0 -52 -29 -110 -56 -110 -11 0 -36 -57
-49 -112 -4 -15 -2 -43 5 -63 10 -30 9 -42 -5 -71 -9 -19 -20 -72 -25 -116 -6
-61 -13 -85 -26 -95 -10 -7 -21 -13 -25 -13 -13 0 -30 -67 -31 -118 0 -28 -6
-63 -14 -78 -11 -20 -13 -46 -8 -100 9 -95 -5 -118 -43 -74 -14 17 -33 30 -42
30 -19 0 -42 -45 -60 -115 -10 -37 -9 -41 20 -71 26 -27 28 -34 20 -57 -14
-35 -28 -34 -36 3 -7 33 -16 37 -34 16 -9 -10 -3 -28 24 -80 30 -54 36 -74 33
-113 -3 -41 -6 -48 -26 -51 -41 -6 -55 -54 -69 -227 -14 -182 -38 -344 -53
-359 -5 -5 -10 -18 -10 -28 0 -28 -30 -82 -40 -72 -5 5 -10 162 -13 349 -3
280 -2 345 10 368 9 18 14 57 13 110 0 45 2 133 5 196 7 122 1 181 -18 181
-27 0 -38 -44 -43 -173 -3 -72 -12 -150 -19 -172 -42 -125 -47 -170 -50 -375
-1 -140 -6 -212 -14 -228 -7 -13 -15 -65 -18 -115 -6 -89 -16 -123 -34 -111
-5 3 -9 74 -10 157 0 84 -4 170 -8 192 l-9 40 -2 -35 c-1 -19 -3 -44 -6 -55
-2 -11 -6 -175 -8 -365 -5 -397 7 -691 29 -724 8 -11 15 -30 15 -41 1 -15 4
-13 14 10 12 29 13 28 19 -40 11 -109 9 -135 -8 -135 -13 0 -15 -19 -14 -112
1 -118 11 -179 23 -145 18 50 20 51 24 9 2 -24 -2 -49 -8 -56 -7 -10 -7 -28 1
-65 6 -29 8 -63 5 -77 -8 -32 11 -183 30 -240 8 -25 19 -93 24 -152 10 -114
16 -141 37 -182 7 -14 13 -41 14 -60 2 -65 13 -95 33 -95 28 0 35 -28 35 -152
1 -118 7 -155 22 -131 14 21 30 -12 23 -49 -7 -37 12 -130 31 -153 7 -8 15
-43 19 -78 9 -94 16 -115 32 -101 18 14 21 3 26 -76 3 -33 13 -77 23 -99 10
-21 26 -66 35 -100 9 -35 21 -60 28 -58 8 1 12 -15 12 -47 0 -48 21 -114 39
-125 5 -3 15 -28 22 -55 8 -32 19 -51 30 -54 13 -4 20 -19 25 -56 5 -39 11
-51 24 -51 22 0 30 -20 30 -74 0 -51 8 -62 27 -38 12 16 14 15 33 -7 20 -23
28 -91 11 -91 -13 0 -21 -27 -15 -45 9 -22 21 -18 28 8 l6 22 21 -24 c13 -17
18 -32 14 -45 -15 -45 -17 -76 -6 -76 6 0 11 5 11 10 0 6 9 10 20 10 36 0 54
-66 25 -90 -18 -15 -19 -42 -3 -58 8 -8 19 -4 46 19 39 34 62 27 62 -20 0 -49
40 -145 76 -180 19 -18 34 -39 34 -47 0 -27 48 -119 69 -132 11 -7 21 -18 21
-26 0 -7 7 -19 15 -26 14 -12 26 -46 40 -113 4 -20 16 -32 39 -42 27 -11 36
-24 52 -71 13 -38 27 -60 42 -67 13 -6 26 -23 29 -39 3 -15 21 -39 40 -54 30
-23 34 -30 29 -58 -6 -29 0 -39 49 -94 31 -34 55 -67 54 -74 -4 -19 34 -77 54
-84 9 -3 26 -26 38 -50 11 -25 35 -64 53 -88 17 -23 38 -56 45 -74 8 -18 24
-35 40 -40 24 -9 27 -14 23 -41 -4 -28 -2 -31 22 -31 19 0 26 -5 26 -20 0 -11
12 -26 29 -34 15 -8 34 -28 41 -45 6 -16 20 -37 31 -47 10 -9 19 -23 19 -30 0
-7 9 -18 20 -24 11 -6 23 -22 26 -35 3 -13 15 -27 25 -30 19 -6 49 -53 49 -76
0 -17 31 -38 56 -39 20 0 25 -6 73 -107 12 -26 22 -32 58 -38 26 -4 41 -10 37
-17 -11 -17 18 -58 54 -75 19 -9 39 -27 45 -40 6 -14 22 -27 38 -30 20 -4 28
-13 33 -35 3 -16 20 -43 37 -61 30 -29 32 -30 45 -13 9 14 10 24 3 38 -5 10
-7 33 -4 51 9 45 -14 65 -52 48 -33 -15 -43 -3 -43 56 0 53 10 59 42 25 14
-15 37 -34 52 -42 26 -13 31 -12 74 10 38 20 49 33 62 70 23 67 28 72 69 68
31 -3 36 0 39 20 3 20 0 23 -21 20 -15 -1 -34 5 -46 17 -28 24 -56 29 -70 11
-9 -11 -6 -18 14 -34 32 -25 32 -42 0 -42 -20 0 -32 -11 -53 -45 -15 -24 -30
-45 -34 -45 -4 0 -17 18 -28 40 -13 25 -29 42 -45 46 -28 7 -32 25 -10 44 9 7
15 23 13 34 -2 17 -11 22 -43 24 -47 4 -65 17 -65 47 0 19 7 23 48 28 51 6
113 34 120 55 2 6 -7 16 -20 21 -13 6 -36 19 -52 30 -23 16 -34 18 -50 9 -15
-8 -21 -8 -24 2 -3 8 -18 26 -34 41 -39 35 -35 70 7 81 17 4 41 21 53 38 22
30 22 30 2 50 -16 16 -25 18 -45 10 -57 -22 -65 -16 -65 50 0 32 -5 82 -11
111 -13 60 -1 99 31 99 11 0 20 -3 21 -7 7 -85 31 -120 96 -147 36 -14 54 -28
58 -43 3 -14 13 -23 25 -23 29 0 26 36 -5 56 -15 9 -27 30 -31 50 -5 25 -11
34 -26 34 -27 0 -74 52 -81 90 -5 22 -12 30 -28 30 -13 0 -23 8 -26 21 -3 11
-16 24 -29 29 -12 5 -24 19 -26 32 -2 17 -9 23 -28 22 -14 -1 -31 7 -38 18
-20 27 -43 18 -56 -22 -14 -42 -64 -63 -94 -38 -9 8 -30 20 -47 27 -33 13 -75
71 -75 102 0 21 24 30 96 32 55 2 66 -15 25 -36 -31 -15 -34 -27 -16 -51 14
-19 16 -19 60 5 25 13 45 26 46 29 1 3 2 22 3 43 2 30 -1 37 -16 37 -13 0 -20
10 -24 30 -5 21 -18 37 -49 54 -35 21 -44 33 -54 71 -9 38 -17 47 -47 60 -25
10 -34 20 -30 30 7 18 -20 68 -56 105 -16 16 -28 38 -28 50 0 11 -24 51 -54
88 -30 37 -64 87 -77 112 -13 25 -34 54 -47 65 -13 11 -27 36 -31 55 -6 30
-11 35 -33 32 -25 -2 -25 -1 -21 43 6 49 -7 75 -38 75 -16 0 -19 8 -19 50 0
46 -2 50 -24 50 -20 0 -25 6 -30 44 -5 32 -14 49 -31 60 -14 9 -25 25 -25 35
0 10 -7 24 -15 31 -8 7 -21 34 -29 61 -20 67 -25 74 -42 52 -12 -16 -13 -11
-14 40 0 53 -3 62 -30 85 -25 22 -30 34 -30 70 0 34 -4 44 -21 50 -16 6 -22
18 -24 50 -4 53 -12 64 -37 56 -20 -6 -21 -3 -16 54 6 63 -8 102 -36 102 -9 0
-16 18 -21 45 -3 25 -15 53 -25 63 -10 9 -22 40 -27 67 -7 41 -12 51 -30 53
-20 3 -22 10 -25 74 -3 70 -20 101 -31 58 -12 -48 -24 -14 -23 68 1 78 -2 92
-26 133 -20 32 -28 59 -28 92 0 26 -6 64 -14 84 -8 21 -22 67 -31 103 -8 35
-24 72 -34 81 -14 13 -20 39 -25 106 -4 48 -15 113 -25 143 -10 30 -23 81 -30
114 -6 33 -18 64 -27 71 -14 10 -18 33 -21 116 -5 139 -11 185 -28 199 -10 9
-15 33 -15 76 0 113 -20 267 -41 311 -16 34 -20 59 -17 125 3 106 -12 510 -20
523 -4 6 -5 101 -3 212 2 139 -1 208 -9 223 -9 17 -9 33 0 69 7 25 14 114 16
196 5 284 15 430 39 555 13 69 27 161 31 205 4 43 13 94 20 112 8 18 17 68 20
110 3 43 14 103 25 134 21 62 69 304 69 353 0 17 12 58 26 91 14 33 32 94 41
135 9 46 22 82 34 93 14 14 19 31 19 75 0 46 5 65 24 90 16 23 26 53 31 97 5
47 12 69 25 78 25 17 40 59 40 110 0 29 13 66 40 120 22 43 40 83 40 89 0 5
11 31 24 57 12 26 29 65 36 86 7 22 23 50 36 63 17 16 24 34 24 60 0 20 7 48
15 62 16 29 24 44 76 156 20 45 42 85 48 89 6 3 11 23 11 43 0 50 13 70 34 53
23 -19 38 -4 31 30 -5 20 -1 38 10 55 9 14 25 52 35 85 11 34 31 74 45 91 14
16 25 33 25 38 0 5 15 31 32 57 22 33 33 59 33 85 0 21 3 38 8 38 4 0 13 14
18 30 8 22 17 30 35 30 22 0 24 4 24 49 0 44 3 50 22 53 16 2 27 15 39 47 8
24 23 47 31 52 8 5 25 30 36 57 25 57 88 154 108 165 8 4 14 13 14 20 0 7 5
29 10 49 8 26 17 38 33 40 14 2 22 10 23 23 2 37 14 60 36 70 12 6 25 19 28
30 8 29 51 84 72 91 10 3 18 11 18 19 0 21 27 66 49 81 12 9 21 23 21 33 0 10
12 28 26 42 15 13 33 38 41 54 25 52 42 79 56 90 8 5 24 29 35 51 12 23 28 44
37 47 8 4 15 18 15 31 0 19 7 27 24 32 16 4 29 17 35 37 14 39 39 67 61 67 15
0 17 -18 18 -167 1 -93 4 -379 8 -638 5 -431 8 -1198 6 -1900 -1 -154 -1 -298
0 -320 0 -22 0 -67 -1 -100 0 -33 0 -76 1 -95 1 -19 0 -57 -2 -85 -1 -27 0
-322 3 -655 4 -333 9 -895 12 -1250 4 -355 8 -726 11 -825 2 -99 5 -618 6
-1153 1 -535 6 -976 11 -979 4 -3 19 -2 32 1 22 6 23 12 30 109 4 57 9 1093
11 2303 2 1209 5 2584 7 3054 5 1257 -16 3261 -39 3580 -2 30 -6 89 -8 130 -2
41 -7 100 -11 130 -4 30 -2 74 3 98 7 32 6 59 -4 104 -10 44 -13 90 -8 157 6
105 -7 180 -19 105z m-67 -1497 c0 -31 -19 -50 -37 -36 -16 14 -17 31 -1 47
19 19 38 14 38 -11z m-2079 -4383 c7 -21 6 -31 -7 -45 -29 -33 -44 -6 -24 45
12 33 18 33 31 0z m-111 -1025 c0 -10 -4 -19 -10 -19 -5 0 -10 12 -10 26 0 14
4 23 10 19 6 -3 10 -15 10 -26z m-191 -74 c0 -16 -4 -39 -8 -50 -6 -15 -9 -12
-14 20 -8 48 1 94 14 73 5 -7 8 -26 8 -43z m62 -32 c-9 -17 -10 -17 -17 0 -3
10 -1 30 7 45 l13 27 4 -27 c2 -15 -1 -35 -7 -45z m29 -235 c0 -27 -30 -68
-49 -68 -16 0 -18 83 -3 114 l15 29 18 -24 c10 -13 19 -36 19 -51z m-30 -367
c0 -9 -4 -23 -10 -31 -7 -11 -11 -9 -19 13 -13 33 -14 51 -4 61 9 9 33 -23 33
-43z m491 -1634 c-8 -8 -11 -5 -11 9 0 27 14 41 18 19 2 -9 -1 -22 -7 -28z
m66 -133 c7 -18 -17 -38 -31 -24 -11 11 -1 40 14 40 6 0 13 -7 17 -16z m57
-70 c3 -9 6 -32 6 -52 l0 -37 -20 33 c-11 18 -20 41 -20 52 0 24 25 27 34 4z
m-116 -55 c-1 -13 -7 -23 -13 -22 -13 3 -18 30 -11 50 10 24 29 1 24 -28z
m-114 -69 c28 -10 36 -40 11 -40 -8 0 -15 5 -15 10 0 6 -7 10 -15 10 -8 0 -15
7 -15 15 0 18 1 18 34 5z m336 -262 c-1 -17 -37 -64 -44 -57 -10 10 15 69 30
69 8 0 14 -6 14 -12z m130 -203 c0 -6 -9 -20 -20 -30 -18 -17 -20 -17 -26 -1
-4 10 -1 29 5 43 9 21 14 23 26 13 8 -7 15 -18 15 -25z m88 -303 c3 -16 -2
-22 -17 -22 -24 0 -35 15 -27 36 9 23 40 13 44 -14z m102 -222 c0 -53 -2 -60
-20 -60 -21 0 -23 6 -20 55 1 25 24 65 37 65 1 0 3 -27 3 -60z m77 -202 c-3
-8 -6 -5 -6 6 -1 11 2 17 5 13 3 -3 4 -12 1 -19z m129 -184 c7 -27 -7 -50 -25
-40 -12 8 -15 49 -4 59 13 13 23 7 29 -19z m181 -256 c25 -9 36 -20 43 -48 12
-43 13 -67 2 -74 -15 -9 -50 23 -57 53 -3 16 -15 37 -26 47 -37 33 -20 43 38
22z m157 -174 c16 -42 -12 -96 -39 -74 -14 12 -28 68 -19 81 9 15 51 10 58 -7z
m-14 -139 c11 -13 8 -15 -20 -15 -28 0 -31 2 -20 15 7 8 16 15 20 15 4 0 13
-7 20 -15z m106 -27 c-3 -13 -3 -39 0 -60 6 -32 12 -38 51 -53 31 -12 43 -22
41 -34 -3 -12 -12 -15 -37 -13 -42 4 -125 84 -136 130 -7 33 -10 31 60 45 11
3 22 5 24 6 2 0 1 -9 -3 -21z m-106 -249 c12 -22 6 -54 -9 -45 -11 7 -20 66
-10 66 5 0 13 -9 19 -21z m444 -170 c17 -41 10 -74 -20 -88 -50 -22 -94 -8
-94 30 0 16 76 88 93 89 4 0 14 -14 21 -31z m-299 1 c0 -8 -10 -16 -22 -18
-25 -4 -26 -2 -17 23 8 19 39 16 39 -5z m-58 -17 c4 -11 -26 -27 -35 -19 -2 3
-2 12 2 21 6 18 27 16 33 -2z m-139 -85 c-2 -13 -7 -23 -13 -23 -5 0 -11 10
-13 23 -2 15 2 22 13 22 11 0 15 -7 13 -22z m82 -87 c15 -38 7 -61 -21 -61
-15 0 -19 4 -15 16 4 9 -1 28 -10 41 -8 14 -13 31 -10 39 8 22 40 1 56 -35z
m88 37 c-6 -18 -28 -21 -28 -4 0 9 7 16 16 16 9 0 14 -5 12 -12z m8 -144 c8
-29 -7 -49 -30 -41 -16 6 -22 48 -9 60 14 15 33 6 39 -19z m274 -6 c42 -35 51
-62 24 -72 -28 -11 -63 -6 -71 9 -9 14 -5 95 4 95 2 0 22 -15 43 -32z m-115
-111 c50 -48 55 -63 25 -72 -21 -7 -85 10 -107 28 -25 19 -7 87 22 87 8 0 35
-19 60 -43z m143 -50 c2 -11 -3 -17 -17 -17 -23 0 -35 15 -26 31 10 15 39 6
43 -14z m70 -98 c-2 -16 -11 -25 -25 -27 -19 -3 -23 1 -23 22 0 26 29 51 43
37 5 -5 7 -19 5 -32z m-191 0 c7 -7 9 -25 6 -40 -5 -24 0 -31 31 -50 42 -24
41 -23 20 -43 -25 -25 -51 -19 -63 14 -6 17 -21 34 -35 40 -20 7 -26 17 -26
38 0 45 39 69 67 41z m123 -58 c0 -12 -20 -25 -27 -18 -7 7 6 27 18 27 5 0 9
-4 9 -9z m70 -61 c0 -5 -7 -10 -16 -10 -8 0 -12 5 -9 10 3 6 10 10 16 10 5 0
9 -4 9 -10z m56 -125 c3 -14 3 -36 0 -50 -5 -20 -13 -25 -36 -25 -23 0 -30 5
-30 19 0 11 -3 26 -6 34 -7 18 21 47 47 47 12 0 21 -9 25 -25z"/>
<path d="M21935 22929 c-10 -15 1 -23 20 -15 9 3 13 10 10 16 -8 13 -22 13
-30 -1z"/>
<path d="M21846 22897 c-27 -20 -10 -47 30 -47 41 0 57 26 29 46 -23 17 -36
18 -59 1z"/>
<path d="M22140 22901 c-8 -6 -39 -10 -69 -10 -42 1 -58 -3 -68 -17 -19 -26
-1 -37 36 -21 29 12 38 12 63 0 52 -26 101 -28 122 -4 17 19 18 23 5 36 -19
19 -70 28 -89 16z"/>
<path d="M21476 22843 c-3 -4 -6 -15 -6 -25 0 -24 33 -21 38 3 3 17 -21 33
-32 22z"/>
<path d="M21957 22813 c-12 -11 -8 -23 8 -23 8 0 15 7 15 15 0 16 -12 20 -23
8z"/>
<path d="M21540 22736 c0 -26 44 -48 83 -41 31 6 35 4 41 -18 8 -32 20 -36 79
-27 36 5 57 2 89 -12 49 -22 68 -18 68 16 0 30 -18 37 -88 32 -29 -2 -54 0
-57 4 -3 4 -22 11 -42 15 -21 4 -45 12 -53 20 -8 7 -39 15 -67 19 -44 6 -53 4
-53 -8z"/>
<path d="M22580 22706 c0 -8 4 -17 8 -20 13 -8 35 11 28 23 -10 16 -36 14 -36
-3z"/>
<path d="M22856 22633 c-12 -12 -6 -33 9 -33 8 0 15 6 15 14 0 17 -14 28 -24
19z"/>
<path d="M22115 22586 c-18 -13 -17 -15 28 -21 49 -8 68 -2 51 14 -18 18 -59
22 -79 7z"/>
<path d="M22140 22370 c0 -5 9 -10 21 -10 11 0 17 5 14 10 -3 6 -13 10 -21 10
-8 0 -14 -4 -14 -10z"/>
<path d="M22270 22320 c0 -5 5 -10 11 -10 5 0 7 5 4 10 -3 6 -8 10 -11 10 -2
0 -4 -4 -4 -10z"/>
<path d="M25850 22300 c0 -5 5 -10 11 -10 5 0 7 5 4 10 -3 6 -8 10 -11 10 -2
0 -4 -4 -4 -10z"/>
<path d="M23725 22109 c-4 -6 14 -31 40 -55 27 -24 45 -47 42 -51 -12 -11 25
-43 49 -43 14 0 25 -8 29 -19 6 -20 66 -71 83 -71 5 0 16 -10 24 -22 11 -17
20 -20 42 -14 24 6 26 9 15 22 -7 9 -23 20 -35 24 -11 5 -28 24 -37 42 -15 32
-51 58 -81 58 -15 0 -56 54 -56 74 0 8 -21 26 -46 40 -52 29 -60 31 -69 15z"/>
<path d="M23286 21993 c-12 -12 -6 -33 9 -33 8 0 15 6 15 14 0 17 -14 28 -24
19z"/>
<path d="M23342 21918 c6 -18 28 -21 28 -4 0 9 -7 16 -16 16 -9 0 -14 -5 -12
-12z"/>
<path d="M24160 21654 c0 -22 2 -24 14 -14 8 6 12 18 9 26 -9 23 -23 16 -23
-12z"/>
<path d="M24266 21564 c-4 -10 -1 -14 6 -12 15 5 23 28 10 28 -5 0 -13 -7 -16
-16z"/>
<path d="M26422 21533 c4 -32 38 -46 38 -16 0 20 -18 43 -33 43 -4 0 -7 -12
-5 -27z"/>
<path d="M24350 21478 c0 -16 30 -68 40 -68 34 0 20 66 -15 72 -14 3 -25 1
-25 -4z"/>
<path d="M26470 21460 c0 -26 38 -47 46 -25 7 18 -12 45 -32 45 -8 0 -14 -9
-14 -20z"/>
<path d="M26537 21403 c-4 -3 -7 -17 -7 -30 0 -16 6 -23 20 -23 21 0 40 27 33
48 -5 13 -35 17 -46 5z"/>
<path d="M26530 21295 c0 -19 8 -28 36 -40 45 -19 44 -19 44 5 0 11 -9 29 -20
40 -29 29 -60 26 -60 -5z"/>
<path d="M26606 21202 c-3 -6 -1 -14 5 -17 15 -10 25 3 12 16 -7 7 -13 7 -17
1z"/>
<path d="M24195 21081 c-6 -11 9 -23 19 -14 9 9 7 23 -3 23 -6 0 -12 -4 -16
-9z"/>
<path d="M24480 20556 c0 -9 7 -16 16 -16 9 0 14 5 12 12 -6 18 -28 21 -28 4z"/>
<path d="M24742 20221 c4 -13 18 -16 19 -4 0 4 -5 9 -11 12 -7 2 -11 -2 -8 -8z"/>
<path d="M25076 20034 c-20 -19 -20 -33 -1 -40 20 -8 45 13 45 37 0 23 -23 25
-44 3z"/>
<path d="M19463 19958 c-25 -27 -53 -81 -53 -101 0 -8 -11 -30 -24 -50 -13
-19 -27 -49 -31 -65 -3 -17 -14 -41 -24 -54 -10 -13 -28 -42 -40 -65 -12 -24
-25 -43 -30 -43 -5 0 -14 -15 -21 -34 -6 -18 -20 -42 -32 -52 -11 -11 -27 -32
-35 -49 -7 -16 -31 -57 -53 -90 -21 -33 -39 -68 -39 -77 -1 -10 -17 -32 -36
-49 -24 -22 -35 -41 -35 -60 0 -15 -7 -29 -15 -33 -8 -3 -23 -22 -33 -43 -9
-21 -38 -69 -64 -108 -27 -38 -48 -75 -48 -81 0 -7 -8 -15 -18 -18 -10 -4 -37
-42 -60 -86 -23 -45 -53 -96 -67 -114 -14 -18 -25 -40 -25 -48 0 -9 -7 -21
-15 -28 -8 -7 -15 -17 -15 -22 0 -6 -16 -32 -35 -58 -19 -26 -35 -51 -35 -56
0 -4 -7 -14 -15 -23 -8 -9 -23 -26 -35 -38 -11 -13 -20 -28 -20 -34 0 -6 -19
-42 -42 -80 -24 -39 -47 -78 -53 -87 -5 -9 -31 -51 -57 -92 -26 -41 -50 -88
-54 -105 -4 -16 -22 -48 -41 -69 -18 -22 -33 -46 -33 -55 0 -8 -16 -29 -35
-47 -19 -17 -35 -41 -35 -52 0 -12 -9 -26 -20 -32 -10 -6 -25 -28 -31 -50 -7
-22 -20 -47 -31 -56 -10 -10 -18 -24 -18 -32 0 -8 -13 -30 -30 -49 -16 -18
-30 -43 -30 -53 0 -11 -7 -28 -16 -37 -29 -33 -94 -125 -94 -135 0 -5 -14 -27
-31 -48 -17 -21 -28 -43 -24 -49 3 -6 -5 -25 -20 -43 -14 -17 -29 -44 -32 -60
-3 -16 -16 -36 -28 -44 -12 -8 -30 -30 -41 -49 -10 -19 -22 -35 -27 -35 -4 0
-16 -20 -27 -44 -10 -24 -35 -67 -54 -95 -20 -28 -36 -53 -36 -56 0 -6 -44
-68 -90 -127 -12 -15 -18 -33 -15 -39 4 -6 -7 -26 -25 -44 -34 -35 -48 -57
-74 -113 -9 -19 -27 -48 -41 -64 -15 -17 -24 -37 -20 -45 3 -9 -2 -17 -13 -20
-19 -5 -52 -61 -52 -88 0 -8 -5 -15 -10 -15 -6 0 -16 -12 -23 -27 -6 -15 -21
-37 -32 -49 -67 -72 -86 -104 -75 -124 9 -17 7 -22 -14 -30 -27 -10 -86 -102
-86 -133 0 -11 -9 -21 -20 -24 -22 -6 -56 -66 -46 -82 4 -5 -3 -12 -14 -16
-11 -3 -20 -10 -20 -15 0 -4 -16 -27 -35 -50 -19 -23 -35 -52 -35 -63 0 -12
-13 -35 -30 -50 -33 -31 -38 -58 -15 -77 22 -19 50 -8 51 20 2 44 4 48 27 54
26 6 80 69 92 106 4 14 19 35 33 48 21 20 23 29 18 63 -5 34 -4 39 12 39 25 0
49 28 77 87 12 26 36 64 54 83 17 19 30 42 27 52 -2 10 4 18 15 21 11 3 19 14
19 27 0 12 15 35 35 53 19 17 35 37 35 45 0 8 9 25 20 39 11 14 20 36 20 49 0
15 9 27 28 36 19 10 28 22 30 45 2 21 9 33 22 36 11 3 24 17 30 32 5 14 23 38
40 52 16 13 30 33 30 44 0 10 10 23 21 30 18 9 21 17 16 54 -6 42 -5 44 21 47
17 2 28 10 31 23 2 11 18 38 37 60 18 23 41 59 51 81 10 21 30 51 46 66 19 19
27 37 27 63 0 25 4 35 16 35 8 0 20 14 26 30 5 17 19 35 30 41 10 6 28 31 39
56 10 25 28 56 39 70 11 14 20 32 20 39 0 22 49 86 80 106 22 13 30 25 30 45
0 18 11 38 31 57 16 16 28 35 25 42 -4 8 -9 20 -12 28 -4 9 5 20 24 30 16 8
37 31 46 50 9 19 26 38 37 41 12 4 19 13 16 23 -4 20 15 63 37 81 9 8 16 20
16 27 0 8 23 42 50 76 28 34 50 68 50 75 0 33 48 119 73 130 18 9 27 20 27 36
0 13 15 37 35 57 19 19 35 42 35 51 0 9 15 35 34 57 18 23 38 61 44 85 8 32
22 52 47 71 26 20 35 34 35 57 0 23 7 34 29 47 16 9 36 31 45 49 9 18 20 33
26 33 6 0 5 9 -2 25 -10 21 -8 28 8 40 10 8 29 18 42 21 17 5 22 13 22 40 0
27 5 37 25 46 14 6 25 19 25 28 0 22 20 40 43 40 20 0 20 19 2 62 -5 12 2 26
23 45 16 15 43 57 60 93 24 52 39 70 71 88 46 26 67 22 51 -9 -15 -26 -5 -39
31 -39 26 0 29 3 29 30 0 34 22 49 45 30 19 -16 19 -44 -1 -64 -14 -14 -15
-101 -15 -829 2 -1330 12 -2590 21 -2606 5 -9 10 9 15 49 6 49 10 59 17 46 6
-10 7 -46 3 -87 -6 -57 -10 -68 -20 -59 -11 9 -15 4 -20 -24 -9 -43 2 -64 20
-40 11 16 13 14 21 -17 12 -55 5 -3584 -10 -4409 -12 -699 -11 -682 -36 -702
-26 -21 -127 -24 -200 -6 -25 6 -75 11 -111 12 -42 1 -72 6 -84 16 -12 10 -46
16 -104 18 -55 2 -101 10 -126 21 -22 10 -61 24 -87 31 -27 7 -48 19 -48 26 0
7 -22 20 -49 28 -27 8 -58 19 -69 25 -10 5 -51 17 -90 25 -68 14 -74 14 -117
-5 -30 -13 -45 -26 -45 -38 0 -15 13 -20 73 -29 61 -9 76 -16 100 -42 15 -17
27 -34 27 -39 0 -11 -46 -31 -70 -31 -11 0 -20 -4 -20 -10 0 -15 94 -12 126 5
16 8 43 15 59 15 36 -1 159 -51 189 -78 27 -25 117 -59 185 -72 31 -6 63 -19
73 -30 15 -16 32 -20 78 -20 32 0 69 -4 82 -9 67 -25 108 -34 172 -35 56 -1
82 -7 124 -29 42 -21 67 -27 117 -27 47 0 66 -4 73 -15 11 -20 130 -39 198
-32 40 4 62 1 94 -15 32 -16 48 -19 72 -12 17 5 33 14 35 20 5 16 -42 34 -87
34 -35 0 -40 3 -40 24 0 21 11 27 103 56 70 23 133 36 201 41 97 8 137 23 122
47 -3 6 -30 13 -59 17 -28 4 -79 13 -112 21 -33 7 -94 14 -135 14 -41 1 -116
9 -166 19 -62 12 -99 14 -115 8 -28 -10 -144 -17 -176 -10 -26 6 -40 39 -47
113 -3 30 -8 534 -11 1120 -3 586 -8 1187 -10 1335 -6 350 -20 1812 -18 1935
1 52 1 145 0 205 -2 262 3 497 11 566 5 41 6 96 2 122 -4 26 -4 192 0 370 5
273 4 326 -9 345 -12 20 -12 32 -1 85 19 91 30 313 18 371 -6 27 -7 65 -3 85
11 64 31 2109 21 2166 -8 40 -26 47 -26 11 0 -26 -15 -43 -24 -28 -3 5 -1 22
4 38 5 16 12 45 15 64 3 23 20 52 46 80 41 45 41 45 35 108 l-7 63 36 15 c24
10 35 21 35 35 0 27 43 23 48 -5 2 -11 19 -34 38 -51 19 -18 34 -42 34 -53 0
-11 5 -24 10 -27 6 -3 10 -17 10 -30 0 -26 34 -53 45 -35 14 23 25 7 25 -36 0
-49 42 -152 66 -161 8 -3 14 -17 14 -32 0 -27 72 -168 94 -186 7 -5 19 -28 27
-50 7 -22 19 -47 26 -56 7 -8 13 -21 13 -28 0 -7 13 -32 29 -56 16 -23 34 -60
41 -81 30 -91 70 -164 89 -164 15 0 22 -9 26 -37 13 -74 50 -159 77 -174 9 -5
20 -23 23 -41 4 -18 13 -44 20 -58 7 -14 19 -40 26 -58 6 -19 22 -40 35 -48
14 -10 25 -30 29 -55 8 -49 28 -90 56 -115 20 -18 21 -18 35 0 7 10 15 24 17
30 2 6 8 8 12 4 4 -4 2 -35 -5 -68 -12 -58 -12 -63 9 -90 11 -16 21 -39 21
-50 0 -34 29 -80 50 -80 13 0 20 -8 22 -27 3 -24 8 -28 33 -28 28 0 30 -3 28
-32 -2 -25 3 -36 26 -52 31 -22 49 -85 30 -107 -7 -8 -7 -14 1 -19 5 -3 13 1
16 9 5 12 10 13 26 5 17 -9 19 -17 13 -60 -6 -40 -4 -54 10 -69 9 -10 23 -36
30 -57 10 -29 19 -39 38 -41 18 -2 24 -8 20 -18 -3 -8 -2 -30 1 -48 5 -26 12
-36 29 -38 19 -3 22 -10 25 -55 3 -52 3 -52 33 -46 l29 6 -6 -56 c-6 -54 -6
-57 19 -66 20 -8 29 -21 38 -55 6 -25 17 -47 25 -50 8 -3 14 -18 14 -33 0 -42
15 -60 34 -44 26 21 39 3 32 -45 -7 -57 6 -94 33 -89 23 4 37 -10 21 -20 -24
-15 -7 -85 21 -85 12 0 19 -7 19 -19 0 -24 27 -88 40 -96 5 -3 10 -17 10 -31
0 -31 28 -44 45 -21 7 10 15 17 19 17 10 0 7 -38 -4 -45 -16 -10 6 -88 36
-125 7 -8 14 -26 16 -40 4 -32 32 -33 36 -2 2 16 9 22 20 20 14 -3 17 -15 15
-63 -2 -55 5 -87 37 -170 l11 -30 18 24 c10 13 23 21 30 17 14 -9 15 -53 1
-61 -17 -10 -12 -34 22 -102 35 -72 47 -83 60 -59 17 31 31 18 25 -26 -4 -28
0 -54 13 -82 9 -23 23 -56 30 -74 7 -18 21 -37 30 -42 10 -5 21 -25 24 -44 4
-19 15 -45 26 -59 11 -14 20 -31 20 -39 0 -8 6 -23 14 -34 12 -15 17 -17 27
-6 7 6 19 12 26 12 18 0 28 -47 13 -65 -16 -19 -3 -72 20 -85 10 -6 28 -10 40
-10 15 0 26 -12 40 -46 22 -49 26 -94 10 -94 -17 0 -10 -32 18 -90 18 -37 33
-55 44 -54 13 1 19 -9 24 -44 4 -25 17 -61 30 -80 13 -19 24 -43 24 -53 0 -10
11 -26 24 -35 14 -8 28 -30 31 -47 11 -49 66 -157 81 -157 7 0 19 -19 25 -42
7 -24 18 -50 24 -58 6 -8 17 -34 25 -57 14 -44 30 -57 30 -24 0 10 6 24 14 30
20 17 25 -2 19 -74 -4 -51 -1 -68 21 -111 14 -29 26 -56 26 -61 0 -5 11 -19
24 -30 13 -12 27 -36 31 -55 4 -18 21 -57 37 -85 26 -46 42 -59 70 -54 4 0 3
-10 -2 -24 -6 -16 -5 -36 2 -57 18 -51 68 -128 84 -128 13 0 17 -11 29 -82 3
-20 12 -38 19 -41 7 -3 16 -19 19 -35 3 -16 16 -42 29 -58 13 -16 30 -47 37
-69 19 -56 59 -136 81 -160 10 -11 21 -36 25 -55 4 -19 16 -46 26 -59 11 -13
19 -28 19 -34 0 -6 11 -24 24 -41 13 -17 27 -42 31 -56 9 -31 72 -149 90 -170
7 -8 16 -26 20 -40 8 -27 50 -109 77 -150 9 -14 20 -38 24 -55 4 -16 18 -47
31 -67 12 -21 23 -42 23 -46 0 -5 11 -21 25 -36 14 -15 28 -39 31 -54 9 -38
32 -81 64 -122 15 -19 33 -54 40 -77 7 -24 21 -50 32 -59 10 -10 18 -25 18
-34 0 -10 12 -35 26 -56 15 -21 32 -55 39 -75 8 -20 24 -54 37 -75 34 -55 104
-204 112 -237 4 -15 15 -36 26 -47 11 -11 20 -29 20 -39 0 -11 8 -26 19 -33
23 -17 47 -64 56 -111 4 -20 11 -40 16 -43 5 -3 9 -13 9 -24 0 -10 16 -32 36
-49 28 -25 35 -37 30 -56 -5 -18 0 -28 23 -44 17 -13 32 -35 37 -54 3 -17 17
-48 30 -67 13 -19 24 -39 24 -45 0 -5 14 -30 30 -55 16 -25 30 -51 30 -58 0
-7 14 -33 30 -57 17 -24 30 -48 30 -53 0 -12 48 -100 71 -130 10 -13 21 -43
25 -68 4 -29 11 -44 21 -44 8 0 23 -20 33 -44 11 -24 26 -49 34 -55 8 -7 18
-32 21 -56 5 -31 17 -52 41 -76 21 -21 34 -43 34 -59 0 -26 24 -69 46 -83 7
-4 16 -29 20 -55 10 -68 21 -92 43 -92 31 0 44 -26 38 -75 -6 -41 -4 -45 21
-57 27 -13 60 -65 81 -130 7 -20 22 -49 33 -64 20 -25 38 -56 76 -129 8 -16
22 -38 31 -48 9 -11 15 -38 16 -70 0 -46 3 -52 22 -55 36 -5 48 -28 35 -66
-17 -47 -15 -64 11 -77 29 -16 37 -28 37 -61 0 -25 4 -28 33 -29 17 -1 40 0
50 1 16 1 65 -34 123 -90 25 -24 40 -25 48 -4 10 25 7 32 -14 39 -22 7 -50 53
-50 83 0 10 -13 31 -30 47 -16 16 -30 38 -30 49 0 34 -62 143 -92 161 -15 9
-30 26 -32 38 -3 12 -7 34 -10 49 -3 15 -13 33 -21 41 -13 13 -13 16 0 27 8 7
15 16 15 21 0 12 -52 59 -76 69 -14 6 -25 25 -34 57 -7 26 -20 56 -28 65 -8
10 -17 40 -20 68 -4 44 -7 50 -23 45 -21 -7 -39 26 -39 71 0 14 -6 24 -14 24
-10 0 -17 16 -21 48 -9 66 -13 75 -30 68 -21 -8 -36 27 -37 85 0 34 -5 52 -14
56 -8 3 -14 13 -14 22 0 10 -6 26 -14 36 -12 17 -16 17 -31 5 -24 -20 -37 4
-31 55 6 46 -1 60 -29 60 -17 0 -20 7 -21 53 -2 61 -7 70 -29 52 -21 -17 -27
-8 -29 42 -1 24 -9 57 -19 75 -9 18 -17 40 -17 51 0 10 -6 27 -14 38 -14 18
-15 17 -30 -16 -14 -32 -15 -33 -16 -10 -1 14 -1 46 0 71 1 39 -4 53 -29 82
-17 19 -31 41 -31 49 0 8 -9 23 -20 33 -11 10 -23 34 -26 54 -8 45 -51 137
-81 174 -13 16 -26 41 -29 55 -4 15 -19 43 -33 62 -41 54 -57 81 -71 125 -18
55 -65 153 -83 173 -8 9 -20 34 -25 55 -6 21 -22 54 -36 72 -14 19 -26 40 -26
47 0 7 -12 31 -25 53 -14 22 -25 49 -25 59 0 11 -6 27 -14 35 -12 14 -44 69
-87 153 -7 13 -16 30 -21 38 -4 8 -42 83 -83 166 -41 83 -81 157 -89 163 -7 6
-16 24 -19 40 -3 15 -17 41 -29 57 -13 16 -37 61 -53 99 -16 39 -39 84 -52
101 -13 17 -23 38 -23 46 0 8 -13 35 -30 59 -16 24 -30 50 -30 58 0 7 -11 26
-25 43 -14 16 -28 42 -32 56 -3 15 -17 43 -30 62 -12 19 -23 42 -23 52 0 9 -9
22 -20 28 -10 6 -25 29 -32 51 -6 23 -18 43 -25 46 -7 3 -18 25 -25 50 -7 30
-18 48 -33 55 -17 8 -25 22 -30 54 -4 29 -13 48 -26 54 -10 6 -19 19 -19 29 0
10 -13 38 -30 62 -16 24 -30 51 -30 60 0 9 -9 24 -20 34 -10 9 -26 39 -35 66
-9 26 -24 58 -34 71 -9 13 -30 50 -46 83 -15 33 -32 67 -36 75 -5 8 -19 35
-31 60 -13 25 -28 50 -34 55 -7 6 -17 28 -24 50 -7 22 -20 49 -30 60 -9 11
-22 34 -27 50 -6 17 -22 48 -37 69 -14 21 -26 47 -26 56 0 10 -7 23 -15 30
-24 20 -75 115 -75 140 0 13 -7 31 -15 39 -8 9 -38 64 -68 121 -86 165 -91
175 -104 183 -6 4 -14 25 -18 47 -4 22 -13 46 -21 53 -7 6 -20 18 -29 25 -8 7
-18 25 -21 40 -4 15 -15 36 -24 47 -10 11 -21 35 -25 54 -4 18 -16 42 -26 52
-27 27 -166 291 -200 379 -7 19 -27 53 -44 75 -17 22 -37 60 -44 84 -7 25 -23
59 -36 75 -12 17 -26 42 -30 56 -4 14 -18 39 -31 56 -13 17 -24 36 -24 42 0
20 -38 86 -70 120 -16 18 -30 41 -30 50 0 10 -16 42 -35 72 -19 30 -35 66 -35
81 0 15 -7 32 -15 39 -8 7 -15 17 -15 22 0 5 -11 24 -25 42 -14 18 -25 44 -25
58 0 14 -13 36 -30 53 -16 16 -30 35 -30 43 0 17 -81 142 -92 142 -4 0 -8 11
-8 24 0 35 -18 78 -39 92 -9 7 -23 30 -29 52 -7 22 -18 42 -26 45 -7 3 -16 23
-20 45 -4 25 -15 48 -30 59 -13 10 -29 36 -37 58 -7 22 -19 47 -26 56 -7 8
-13 22 -13 31 0 8 -11 31 -23 50 -13 19 -27 48 -31 64 -4 16 -15 40 -24 54
-22 32 -57 98 -121 228 -29 56 -56 102 -61 102 -5 0 -13 12 -16 27 -4 15 -29
70 -56 122 -26 52 -48 99 -48 105 0 5 -11 24 -25 42 -14 18 -25 39 -25 47 0 8
-13 33 -30 55 -16 23 -30 49 -30 57 0 8 -18 44 -40 80 -22 36 -40 72 -40 80 0
7 -4 16 -9 19 -7 5 -41 63 -71 125 -42 86 -57 117 -95 186 -24 44 -47 87 -51
95 -4 8 -12 22 -18 30 -7 8 -18 33 -25 55 -7 22 -21 49 -31 60 -9 11 -23 35
-30 53 -7 18 -21 37 -30 42 -10 6 -20 26 -23 52 -3 25 -14 49 -26 59 -11 9
-23 32 -26 53 -4 20 -15 46 -24 59 -10 12 -23 38 -31 57 -7 19 -19 42 -27 51
-7 8 -13 20 -13 25 0 23 -27 64 -48 74 -13 5 -20 15 -17 20 10 16 -13 75 -46
116 -16 20 -29 41 -29 46 0 6 -9 21 -20 35 -11 14 -20 40 -20 58 0 19 -8 39
-19 49 -11 10 -25 32 -31 49 -7 18 -21 50 -31 73 -11 22 -19 48 -19 57 0 10
-13 36 -30 59 -16 22 -30 49 -30 59 0 10 -5 21 -10 24 -6 4 -19 24 -30 46 -24
45 -29 47 -57 17z m-89 -417 c8 -12 -3 -41 -15 -41 -5 0 -9 11 -9 25 0 25 14
34 24 16z m-62 -173 c-9 -9 -12 -7 -12 12 0 19 3 21 12 12 9 -9 9 -15 0 -24z
m-97 -151 c-16 -39 -45 -50 -45 -18 0 25 40 75 52 63 5 -5 2 -24 -7 -45z
m1045 -877 c0 -5 -4 -10 -10 -10 -5 0 -10 5 -10 10 0 6 5 10 10 10 6 0 10 -4
10 -10z m260 -534 c0 -8 -4 -18 -10 -21 -5 -3 -10 3 -10 14 0 12 5 21 10 21 6
0 10 -6 10 -14z m-1215 -910 c-4 -17 -11 -53 -15 -81 -7 -47 -7 -44 -9 31 0
44 2 84 5 87 15 15 26 -7 19 -37z m-5 -379 c0 -23 -5 -49 -10 -57 -7 -11 -10
4 -10 48 0 40 4 61 10 57 6 -3 10 -25 10 -48z m3 -407 c5 -48 -14 -122 -26
-102 -4 6 -4 98 0 204 l8 193 6 -125 c4 -69 9 -145 12 -170z m-4 -192 c1 -15
-3 -30 -9 -33 -6 -4 -10 14 -9 47 0 39 3 48 9 33 5 -11 9 -32 9 -47z m2881
-1259 c0 -5 -4 -9 -10 -9 -5 0 -10 7 -10 16 0 8 5 12 10 9 6 -3 10 -10 10 -16z
m130 -220 c0 -20 -24 -26 -35 -9 -4 6 -4 17 -1 25 7 20 36 7 36 -16z m510
-1055 c0 -8 -4 -14 -10 -14 -5 0 -10 9 -10 21 0 11 5 17 10 14 6 -3 10 -13 10
-21z m48 -63 c3 -8 -1 -12 -9 -9 -7 2 -15 10 -17 17 -3 8 1 12 9 9 7 -2 15
-10 17 -17z m682 -1311 c0 -5 -2 -10 -4 -10 -3 0 -8 5 -11 10 -3 6 -1 10 4 10
6 0 11 -4 11 -10z m327 -667 c-3 -10 -5 -2 -5 17 0 19 2 27 5 18 2 -10 2 -26
0 -35z m-4650 -979 c5 -14 -22 -25 -42 -18 -8 4 -15 13 -15 21 0 17 51 14 57
-3z m5373 -214 c0 -11 -4 -20 -9 -20 -14 0 -23 18 -16 30 10 17 25 11 25 -10z"/>
<path d="M24991 19870 c0 -8 6 -26 14 -40 13 -23 14 -23 15 -4 0 11 -7 29 -15
40 -11 14 -14 15 -14 4z"/>
<path d="M13634 19775 c-8 -19 3 -65 15 -65 9 0 21 34 21 63 0 21 -28 23 -36
2z"/>
<path d="M25106 19680 c8 -31 24 -50 24 -29 0 8 -7 24 -16 35 -14 18 -15 18
-8 -6z"/>
<path d="M25300 19644 c0 -13 21 -44 30 -44 6 0 10 11 10 25 0 18 -5 25 -20
25 -11 0 -20 -3 -20 -6z"/>
<path d="M21273 19578 c-30 -14 -31 -65 -3 -101 11 -14 27 -43 34 -65 8 -22
35 -68 60 -102 25 -34 46 -69 46 -77 0 -9 17 -41 38 -72 21 -31 51 -82 66
-113 14 -32 31 -58 37 -58 7 0 9 -9 6 -21 -4 -14 5 -32 29 -58 19 -21 34 -46
34 -55 0 -9 11 -34 25 -54 14 -20 25 -44 25 -54 0 -9 11 -29 24 -43 13 -14 27
-37 30 -50 4 -14 17 -41 31 -61 14 -20 25 -42 25 -49 0 -7 16 -32 35 -55 19
-23 35 -51 35 -61 0 -11 7 -22 15 -25 20 -8 45 13 45 38 0 26 -64 156 -92 185
-19 21 -21 28 -12 63 13 48 5 66 -22 45 -32 -24 -42 -17 -49 34 -5 37 -11 50
-26 54 -14 4 -19 14 -19 41 0 27 -6 40 -25 52 -22 14 -24 22 -19 50 5 27 3 34
-10 34 -17 0 -44 55 -53 108 -4 24 -10 31 -21 27 -20 -8 -42 13 -42 41 0 12
-4 25 -9 28 -5 4 -15 38 -22 76 -11 61 -16 71 -36 76 -31 8 -63 50 -63 82 0
17 -11 35 -32 52 -30 25 -31 29 -20 54 7 15 12 31 12 36 0 13 -49 11 -77 -2z"/>
<path d="M25170 19578 c0 -9 5 -20 11 -23 17 -11 20 0 4 21 -13 17 -14 17 -15
2z"/>
<path d="M25220 19480 c0 -5 5 -10 11 -10 5 0 7 5 4 10 -3 6 -8 10 -11 10 -2
0 -4 -4 -4 -10z"/>
<path d="M25420 19430 c0 -5 5 -10 11 -10 5 0 7 5 4 10 -3 6 -8 10 -11 10 -2
0 -4 -4 -4 -10z"/>
<path d="M25520 19281 c0 -20 20 -61 30 -61 5 0 10 16 10 35 0 28 -4 35 -20
35 -11 0 -20 -4 -20 -9z"/>
<path d="M25330 19270 c0 -5 7 -10 16 -10 8 0 12 5 9 10 -3 6 -10 10 -16 10
-5 0 -9 -4 -9 -10z"/>
<path d="M13063 19165 c-3 -9 -3 -18 0 -21 9 -9 27 6 27 22 0 19 -19 18 -27
-1z"/>
<path d="M25380 19161 c0 -12 5 -21 10 -21 6 0 10 6 10 14 0 8 -4 18 -10 21
-5 3 -10 -3 -10 -14z"/>
<path d="M25430 19052 c0 -27 10 -52 21 -52 15 0 10 47 -6 60 -12 10 -15 9
-15 -8z"/>
<path d="M19072 19000 c0 -14 2 -19 5 -12 2 6 2 18 0 25 -3 6 -5 1 -5 -13z"/>
<path d="M25496 18905 c4 -8 8 -15 10 -15 2 0 4 7 4 15 0 8 -4 15 -10 15 -5 0
-7 -7 -4 -15z"/>
<path d="M12910 18814 c0 -9 5 -14 12 -12 18 6 21 28 4 28 -9 0 -16 -7 -16
-16z"/>
<path d="M25540 18783 c0 -5 4 -14 9 -21 7 -11 9 -11 14 1 3 8 3 18 0 21 -9 8
-23 7 -23 -1z"/>
<path d="M18905 18770 c3 -5 8 -10 11 -10 2 0 4 5 4 10 0 6 -5 10 -11 10 -5 0
-7 -4 -4 -10z"/>
<path d="M12897 18714 c-10 -10 -9 -84 1 -84 14 0 32 23 32 40 0 21 -24 53
-33 44z"/>
<path d="M25808 18639 c-25 -14 -22 -38 6 -49 13 -5 26 -15 30 -22 3 -7 3 5
-1 27 -7 49 -13 57 -35 44z"/>
<path d="M12850 18588 c0 -13 4 -29 9 -37 8 -12 12 -12 25 -2 20 17 20 28 2
47 -21 21 -36 17 -36 -8z"/>
<path d="M14914 18558 c-4 -13 -7 -29 -6 -36 2 -6 -9 -27 -23 -46 -14 -18 -25
-38 -25 -45 0 -6 -11 -29 -25 -51 -14 -22 -25 -47 -25 -56 0 -14 -10 -37 -61
-136 -5 -10 -9 -25 -9 -34 0 -8 -11 -30 -24 -47 -13 -18 -27 -52 -31 -77 -4
-25 -12 -51 -18 -58 -24 -30 -47 -119 -47 -183 0 -54 -4 -69 -20 -84 -14 -13
-20 -29 -18 -49 4 -40 30 -41 42 -1 5 17 17 46 26 65 21 41 49 149 52 200 1
21 11 44 25 57 17 17 23 33 23 67 0 35 5 49 20 58 15 9 20 24 20 53 0 43 36
130 74 180 13 17 27 46 31 65 4 19 18 51 32 72 16 24 23 47 21 69 -4 39 -23
49 -34 17z"/>
<path d="M25640 18498 c0 -13 5 -30 10 -38 14 -23 34 3 26 34 -8 32 -36 35
-36 4z"/>
<path d="M25700 18336 c0 -14 5 -28 10 -31 6 -3 10 5 10 19 0 14 -4 28 -10 31
-6 3 -10 -5 -10 -19z"/>
<path d="M12781 18314 c-15 -53 -14 -89 3 -103 22 -18 39 22 33 76 -7 63 -23
75 -36 27z"/>
<path d="M12960 18257 c0 -7 7 -22 15 -33 19 -25 19 -68 0 -84 -22 -18 -18
-49 8 -59 21 -8 22 -6 29 67 7 70 6 78 -14 99 -24 26 -38 29 -38 10z"/>
<path d="M12734 18135 c-7 -30 2 -59 16 -50 13 8 13 75 0 75 -5 0 -12 -11 -16
-25z"/>
<path d="M22111 18006 c-9 -10 -2 -32 30 -95 22 -45 47 -85 55 -88 8 -3 14
-17 14 -31 0 -14 11 -40 25 -58 14 -18 25 -40 25 -50 0 -9 13 -31 29 -50 18
-20 28 -40 25 -51 -3 -11 6 -29 25 -47 17 -17 31 -39 31 -49 0 -11 14 -42 30
-69 17 -26 30 -52 30 -57 0 -4 9 -16 19 -25 10 -10 24 -37 30 -60 12 -47 34
-75 46 -56 10 15 -15 101 -30 107 -7 2 -19 25 -26 51 -7 26 -23 62 -36 81 -13
19 -23 42 -23 52 0 10 -6 22 -14 26 -7 4 -21 25 -31 46 -9 20 -23 37 -30 37
-15 0 -25 22 -25 58 0 34 -36 108 -64 130 -16 12 -27 37 -36 84 -9 49 -17 69
-30 73 -10 3 -21 17 -24 30 -7 28 -27 33 -45 11z"/>
<path d="M12717 17973 c-4 -3 -7 -28 -7 -55 0 -69 24 -59 28 10 3 48 -4 62
-21 45z"/>
<path d="M25827 17943 c-4 -3 -7 -15 -7 -25 0 -15 3 -16 13 -6 8 7 14 18 14
25 0 14 -10 17 -20 6z"/>
<path d="M12677 17743 c-4 -3 -7 -17 -7 -30 0 -33 24 -24 28 10 3 26 -7 35
-21 20z"/>
<path d="M25870 17675 c0 -14 5 -25 10 -25 6 0 10 11 10 25 0 14 -4 25 -10 25
-5 0 -10 -11 -10 -25z"/>
<path d="M12470 17525 c0 -8 5 -15 10 -15 6 0 10 7 10 15 0 8 -4 15 -10 15 -5
0 -10 -7 -10 -15z"/>
<path d="M14560 17495 c-5 -14 -10 -32 -10 -39 0 -6 -5 -17 -11 -23 -24 -24
-52 -120 -54 -183 0 -36 -6 -81 -12 -100 -17 -52 -26 -120 -16 -120 12 0 31
56 37 113 3 26 13 72 21 102 9 30 15 60 14 67 -4 29 3 46 37 97 22 34 34 64
32 79 -4 35 -26 39 -38 7z"/>
<path d="M22540 17164 c0 -15 13 -41 29 -60 20 -22 28 -40 24 -53 -5 -20 34
-93 83 -153 12 -15 25 -41 29 -58 7 -32 29 -40 39 -15 8 22 -12 66 -33 72 -11
3 -23 21 -30 46 -7 23 -25 67 -40 97 -16 30 -34 72 -41 93 -10 32 -34 57 -54
57 -3 0 -6 -12 -6 -26z"/>
<path d="M14423 16888 c-32 -69 -47 -176 -40 -283 4 -69 1 -110 -9 -144 -8
-27 -13 -77 -13 -112 1 -35 -2 -125 -7 -199 -10 -167 -7 -386 6 -442 5 -24 17
-125 27 -225 15 -163 19 -183 35 -183 20 0 20 1 22 -100 4 -155 51 -412 83
-450 12 -15 23 -38 23 -51 0 -13 4 -40 10 -59 5 -19 18 -85 28 -145 15 -86 29
-128 61 -190 22 -44 41 -92 41 -106 0 -38 39 -151 60 -174 22 -23 59 -103 60
-126 0 -9 16 -48 35 -88 19 -39 35 -77 35 -84 0 -6 9 -27 20 -45 11 -18 20
-41 20 -52 0 -10 7 -25 15 -34 8 -8 15 -19 15 -24 0 -5 9 -17 19 -26 11 -10
25 -32 31 -49 31 -82 53 -119 100 -172 27 -32 50 -61 50 -66 0 -4 16 -26 35
-49 23 -27 35 -52 35 -72 0 -46 17 -71 46 -64 19 5 29 -1 53 -35 17 -23 33
-50 36 -60 8 -23 50 -35 69 -20 8 7 20 32 27 56 8 27 21 47 31 51 20 6 48 53
48 81 0 10 9 32 20 48 11 17 20 44 20 61 0 23 7 36 25 48 33 22 61 79 70 144
5 39 10 51 18 43 18 -18 27 -13 27 15 0 19 -4 25 -15 20 -9 -3 -15 0 -15 9 0
8 5 15 10 15 6 0 10 8 10 19 0 24 25 45 45 37 12 -4 15 4 15 43 0 37 7 58 30
92 16 24 30 49 30 55 0 7 7 14 15 18 8 3 15 11 15 18 0 7 12 36 25 63 14 28
25 55 25 61 0 5 14 23 30 39 38 36 37 51 -2 94 l-31 34 -18 -24 c-11 -15 -16
-33 -12 -50 4 -20 0 -27 -14 -31 -23 -6 -82 -106 -80 -134 2 -14 -5 -20 -24
-22 -23 -3 -27 -9 -32 -44 -3 -24 -14 -48 -25 -57 -11 -9 -23 -33 -26 -54 -5
-27 -14 -41 -32 -49 -13 -6 -24 -17 -24 -25 0 -7 -11 -31 -25 -53 -14 -22 -25
-45 -25 -51 0 -27 -52 -120 -75 -135 -14 -9 -25 -25 -25 -36 0 -11 -15 -34
-32 -50 -18 -17 -44 -54 -58 -82 -20 -41 -31 -52 -52 -54 -22 -3 -30 2 -37 21
-6 14 -14 28 -20 31 -5 4 -15 23 -22 43 -11 35 -73 105 -84 95 -10 -10 -35 21
-35 44 0 12 -4 25 -9 28 -5 3 -12 26 -15 50 -4 24 -13 50 -21 56 -8 7 -14 27
-13 46 1 23 -6 42 -20 57 -23 25 -57 116 -68 184 -4 29 -13 44 -29 51 -14 7
-32 34 -49 79 -15 37 -36 82 -45 99 -10 17 -24 48 -30 70 -15 47 -31 84 -47
104 -12 16 -44 122 -64 210 -7 30 -21 73 -31 94 -11 22 -19 49 -19 59 0 21
-62 289 -85 367 -7 25 -16 68 -20 95 -3 28 -14 91 -25 140 -40 189 -57 314
-89 635 -19 189 -41 511 -37 519 3 3 5 42 7 86 1 44 8 110 15 146 14 68 31
349 22 349 -3 0 -15 -19 -25 -42z"/>
<path d="M12430 16888 c0 -32 0 -32 16 -10 15 22 12 42 -7 42 -5 0 -9 -15 -9
-32z"/>
<path d="M22757 16773 c-9 -9 3 -55 19 -74 8 -8 14 -20 14 -25 0 -5 11 -26 25
-46 14 -20 25 -48 25 -61 0 -21 36 -67 53 -67 17 0 5 70 -17 101 -14 19 -38
61 -54 94 -31 62 -54 90 -65 78z"/>
<path d="M22917 16484 c-14 -15 -6 -38 38 -104 25 -37 45 -73 45 -79 0 -6 11
-29 25 -51 14 -22 25 -50 25 -64 0 -22 45 -64 57 -53 10 11 -9 67 -27 80 -10
7 -22 31 -26 52 -4 22 -19 54 -33 72 -48 58 -66 88 -71 117 -5 29 -20 43 -33
30z"/>
<path d="M23126 16095 c-7 -20 15 -75 37 -94 10 -7 17 -20 17 -27 0 -8 5 -14
10 -14 24 0 -20 139 -46 147 -6 2 -14 -3 -18 -12z"/>
<path d="M23236 15923 c-13 -14 -5 -71 12 -86 25 -23 29 -22 35 10 8 42 -26
97 -47 76z"/>
<path d="M23294 15766 c-4 -11 -1 -21 7 -27 17 -11 26 18 10 34 -7 7 -12 5
-17 -7z"/>
<path d="M23340 15697 c0 -25 26 -67 41 -67 13 0 11 64 -3 78 -19 19 -38 14
-38 -11z"/>
<path d="M23386 15604 c-4 -10 5 -29 24 -50 16 -19 30 -45 30 -58 0 -24 24
-41 41 -30 19 11 9 53 -18 74 -15 12 -33 35 -40 51 -13 32 -28 37 -37 13z"/>
<path d="M12460 15585 c1 -26 2 -28 11 -12 8 14 8 22 0 30 -8 8 -11 3 -11 -18z"/>
<path d="M16747 15513 c-4 -3 -7 -14 -7 -24 0 -10 -14 -31 -31 -47 -27 -25
-30 -34 -24 -61 4 -18 13 -35 21 -38 21 -8 44 16 44 45 0 14 11 35 25 48 28
26 33 69 9 78 -20 8 -29 8 -37 -1z"/>
<path d="M23496 15384 c-9 -23 19 -53 35 -37 15 15 7 47 -12 51 -9 2 -19 -5
-23 -14z"/>
<path d="M19257 15350 c-10 -36 -9 -148 2 -154 11 -7 18 74 11 134 -5 38 -7
41 -13 20z"/>
<path d="M16614 15318 c-9 -18 -25 -43 -36 -55 -13 -14 -18 -28 -13 -42 4 -14
0 -23 -14 -31 -20 -10 -38 -52 -33 -77 2 -7 -5 -13 -16 -13 -26 0 -42 -20 -42
-51 0 -19 -6 -30 -20 -34 -11 -3 -25 -16 -31 -27 -9 -17 -7 -25 14 -46 21 -21
28 -23 41 -13 12 10 13 19 5 39 -6 15 -7 28 -2 29 34 12 60 33 71 55 7 15 21
30 32 33 15 5 20 15 20 41 0 25 8 41 30 61 17 15 28 33 26 40 -3 7 3 17 13 22
27 15 36 72 14 88 -27 20 -41 15 -59 -19z"/>
<path d="M23570 15295 c0 -28 12 -32 30 -10 14 16 6 35 -16 35 -8 0 -14 -10
-14 -25z"/>
<path d="M23608 15214 c-9 -8 7 -59 18 -59 5 0 10 15 12 33 3 30 -13 44 -30
26z"/>
<path d="M23664 15127 c-10 -26 0 -70 19 -81 24 -15 49 18 45 59 -2 24 -8 31
-31 33 -17 2 -29 -2 -33 -11z"/>
<path d="M21910 15061 c0 -12 5 -21 10 -21 6 0 10 6 10 14 0 8 -4 18 -10 21
-5 3 -10 -3 -10 -14z"/>
<path d="M23724 14994 c4 -16 16 -37 27 -47 10 -10 19 -24 19 -31 0 -19 28
-72 45 -86 8 -7 15 -19 15 -27 0 -17 31 -14 37 4 3 7 -7 23 -21 36 -23 22 -25
29 -19 76 l6 53 -39 -4 c-33 -2 -39 0 -44 21 -3 14 -12 27 -19 29 -11 4 -12
-2 -7 -24z"/>
<path d="M16364 14883 c3 -26 11 -52 16 -57 18 -18 45 8 48 46 3 29 -1 36 -23
46 -44 20 -48 16 -41 -35z"/>
<path d="M16305 14829 c-4 -5 -4 -20 -1 -33 4 -16 -3 -32 -24 -56 -17 -19 -30
-37 -30 -42 0 -5 -11 -14 -25 -20 -17 -8 -29 -24 -36 -52 -13 -49 -55 -122
-73 -129 -20 -8 -29 -62 -16 -88 11 -20 10 -21 -6 -14 -43 17 -49 12 -52 -43
-2 -36 -7 -52 -15 -49 -20 7 -44 -11 -52 -40 -3 -15 -15 -39 -26 -55 -16 -21
-19 -36 -14 -61 14 -62 47 -76 67 -29 7 15 20 38 30 51 10 13 18 36 18 50 0
17 11 38 29 55 16 15 37 46 46 69 10 23 24 56 31 72 7 17 26 43 43 59 17 17
31 39 31 51 0 12 13 39 30 61 16 21 30 44 30 50 0 6 16 32 36 58 39 51 48 102
25 130 -15 18 -37 21 -46 5z"/>
<path d="M27587 14763 c-6 -31 1 -55 14 -47 12 7 12 61 0 68 -5 3 -11 -6 -14
-21z"/>
<path d="M27920 14771 c-11 -22 -14 -104 -3 -114 17 -17 33 19 33 74 0 60 -11
75 -30 40z"/>
<path d="M23895 14715 c4 -16 7 -45 7 -63 -1 -26 8 -42 39 -73 30 -30 39 -47
39 -73 0 -19 6 -41 13 -48 6 -7 19 -33 27 -58 16 -47 39 -61 65 -40 8 7 15 26
15 42 0 22 -7 33 -30 46 -19 11 -30 25 -30 38 0 12 -14 37 -32 55 -17 19 -35
51 -40 71 -4 21 -25 59 -45 85 -33 44 -35 45 -28 18z"/>
<path d="M27883 14588 c4 -12 3 -27 -2 -32 -15 -21 -34 -95 -28 -110 10 -24
32 -19 46 10 13 30 4 154 -12 154 -5 0 -7 -10 -4 -22z"/>
<path d="M27531 14503 c-14 -51 -14 -68 3 -82 16 -14 26 12 26 71 0 50 -17 57
-29 11z"/>
<path d="M25766 14463 c-2 -10 -8 -34 -12 -53 -3 -19 -15 -51 -25 -70 -11 -19
-19 -47 -19 -63 0 -24 4 -28 23 -25 17 2 24 12 31 43 14 64 27 95 47 106 21
11 25 49 7 67 -18 18 -46 15 -52 -5z"/>
<path d="M27465 14340 c-7 -11 13 -120 21 -120 3 0 4 19 3 43 -1 23 2 52 6 65
5 16 3 22 -8 22 -9 0 -19 -5 -22 -10z"/>
<path d="M27829 14343 c-1 -5 0 -18 1 -30 1 -13 -8 -36 -19 -52 -26 -35 -28
-99 -5 -108 9 -3 20 0 24 8 15 24 39 146 33 168 -5 20 -32 30 -34 14z"/>
<path d="M24116 14298 c4 -13 13 -43 19 -68 13 -47 37 -64 49 -34 4 11 -6 37
-26 71 -33 54 -55 71 -42 31z"/>
<path d="M13484 14206 c-8 -22 -1 -59 14 -64 8 -2 12 9 12 37 0 40 -15 55 -26
27z"/>
<path d="M25762 14188 c5 -15 28 -18 29 -3 0 6 -7 12 -17 13 -10 3 -15 -1 -12
-10z"/>
<path d="M27409 14148 c-9 -16 -9 -38 1 -90 6 -37 16 -68 21 -68 26 0 39 102
19 154 -12 32 -26 33 -41 4z"/>
<path d="M24200 14126 c0 -38 15 -55 33 -37 13 13 -1 62 -20 69 -9 2 -13 -8
-13 -32z"/>
<path d="M27762 14078 c-13 -13 -17 -90 -5 -101 12 -13 43 26 43 53 0 37 -21
65 -38 48z"/>
<path d="M24254 14004 c-5 -21 -2 -30 14 -43 12 -9 24 -31 28 -48 4 -18 13
-38 20 -44 8 -6 14 -17 14 -24 0 -24 33 -78 51 -82 13 -4 20 -18 25 -49 9 -59
30 -76 55 -45 28 34 8 91 -31 91 -19 0 -30 19 -30 51 0 10 -10 29 -22 41 -13
13 -21 31 -20 42 2 10 -10 32 -26 50 -17 17 -32 42 -34 56 -4 35 -35 38 -44 4z"/>
<path d="M27726 13945 c-21 -22 -23 -125 -2 -125 9 0 18 21 25 62 12 67 4 89
-23 63z"/>
<path d="M13592 13845 c0 -16 2 -22 5 -12 2 9 2 23 0 30 -3 6 -5 -1 -5 -18z"/>
<path d="M27649 13663 c-13 -34 -8 -58 11 -58 10 0 16 13 18 43 4 48 -13 57
-29 15z"/>
<path d="M24460 13619 c0 -6 11 -24 25 -41 14 -16 25 -38 25 -49 0 -26 28 -79
41 -79 7 0 9 -10 5 -25 -5 -19 0 -31 22 -52 16 -16 37 -49 47 -75 12 -34 22
-48 35 -48 10 0 22 4 25 10 8 12 -27 80 -54 104 -12 11 -21 27 -21 37 0 10 -7
24 -15 33 -8 8 -15 21 -15 29 0 7 -19 48 -42 90 -28 53 -47 77 -60 77 -10 0
-18 -5 -18 -11z"/>
<path d="M27595 13498 c-2 -7 -6 -26 -8 -43 -3 -16 -8 -47 -12 -67 -6 -31 -5
-38 8 -38 29 0 65 98 52 140 -7 22 -33 27 -40 8z"/>
<path d="M13840 13451 c0 -6 5 -13 10 -16 6 -3 10 1 10 9 0 9 -4 16 -10 16 -5
0 -10 -4 -10 -9z"/>
<path d="M13810 13302 c0 -5 7 -16 16 -23 14 -12 16 -11 13 5 -4 20 -29 35
-29 18z"/>
<path d="M27546 13294 c-9 -24 -7 -28 9 -14 17 14 20 30 6 30 -5 0 -12 -7 -15
-16z"/>
<path d="M24673 13215 c-28 -20 -29 -30 -2 -53 40 -33 79 -102 81 -142 1 -31
11 -49 49 -91 27 -29 51 -50 55 -46 13 13 -8 59 -44 95 -35 35 -37 40 -25 59
12 19 12 26 -2 55 -10 18 -26 43 -38 55 -11 12 -20 35 -21 50 -1 33 -22 40
-53 18z"/>
<path d="M27500 13202 c0 -19 27 -38 39 -27 7 8 -12 38 -27 43 -7 2 -12 -5
-12 -16z"/>
<path d="M15200 13035 c0 -8 9 -19 20 -25 16 -9 22 -8 26 4 3 8 3 20 -1 26 -9
15 -45 12 -45 -5z"/>
<path d="M25415 13030 c-7 -23 1 -40 19 -40 14 0 29 38 20 52 -10 15 -33 8
-39 -12z"/>
<path d="M27344 12927 c-3 -10 -1 -30 5 -45 10 -21 14 -23 22 -11 12 20 11 32
-5 55 -14 18 -15 18 -22 1z"/>
<path d="M15435 12910 c3 -5 8 -10 11 -10 2 0 4 5 4 10 0 6 -5 10 -11 10 -5 0
-7 -4 -4 -10z"/>
<path d="M15303 12876 c4 -10 7 -27 7 -38 0 -12 8 -22 21 -25 16 -5 19 -11 14
-30 -4 -16 -1 -25 10 -30 26 -9 36 10 29 53 -4 30 -13 44 -37 59 -47 28 -51
30 -44 11z"/>
<path d="M15497 12843 c-17 -16 -4 -49 32 -83 21 -20 44 -53 50 -73 7 -21 21
-42 32 -47 11 -6 24 -30 30 -55 6 -25 15 -45 20 -45 5 0 24 -16 43 -35 20 -19
45 -35 56 -35 15 0 27 -12 41 -45 11 -25 23 -45 28 -45 11 0 71 -95 71 -113 0
-8 6 -20 13 -26 20 -16 77 -26 77 -13 0 28 -22 62 -47 74 -15 7 -34 26 -41 41
-7 15 -17 27 -22 27 -5 0 -18 19 -28 43 -25 55 -88 147 -113 165 -10 7 -19 22
-19 33 0 11 -11 24 -25 31 -14 6 -33 26 -41 45 -12 24 -25 34 -49 39 -29 5
-34 11 -50 65 -13 41 -23 59 -35 59 -9 0 -20 -3 -23 -7z"/>
<path d="M24893 12783 c-19 -7 -16 -27 7 -54 l19 -24 1 37 c0 38 -7 48 -27 41z"/>
<path d="M27311 12769 c-10 -11 -21 -35 -25 -52 -3 -18 -8 -48 -11 -67 l-6
-35 20 24 c12 13 21 29 21 37 0 8 5 14 11 14 14 0 40 66 33 84 -8 21 -19 20
-43 -5z"/>
<path d="M25274 12735 c-5 -20 -11 -24 -30 -19 -20 5 -24 2 -24 -15 0 -22 24
-29 35 -11 3 6 17 7 30 4 17 -4 26 0 35 16 15 28 6 50 -19 50 -14 0 -23 -9
-27 -25z"/>
<path d="M24940 12675 c0 -8 5 -15 10 -15 6 0 10 7 10 15 0 8 -4 15 -10 15 -5
0 -10 -7 -10 -15z"/>
<path d="M15458 12655 c-12 -13 5 -45 24 -45 14 0 19 6 16 22 -3 22 -27 35
-40 23z"/>
<path d="M25331 12624 c-23 -17 -26 -54 -4 -61 15 -5 44 49 34 65 -5 9 -13 8
-30 -4z"/>
<path d="M27210 12580 c0 -35 13 -38 34 -8 12 17 13 24 3 30 -24 15 -37 8 -37
-22z"/>
<path d="M15505 12570 c-11 -18 6 -70 26 -83 10 -6 19 -19 19 -28 0 -9 7 -22
16 -30 21 -17 37 7 23 34 -8 13 -6 25 6 43 15 23 14 24 -5 24 -11 0 -27 11
-36 25 -17 26 -38 32 -49 15z"/>
<path d="M24990 12541 c0 -23 25 -46 35 -32 7 13 -12 51 -25 51 -6 0 -10 -8
-10 -19z"/>
<path d="M27126 12438 c-19 -61 -13 -70 25 -40 14 12 20 25 16 35 -7 20 -36
23 -41 5z"/>
<path d="M26570 12364 c0 -17 22 -14 28 4 2 7 -3 12 -12 12 -9 0 -16 -7 -16
-16z"/>
<path d="M25090 12351 c0 -10 7 -24 15 -31 13 -11 15 -8 15 19 0 21 -5 31 -15
31 -8 0 -15 -8 -15 -19z"/>
<path d="M27045 12360 c3 -5 15 -10 26 -10 10 0 19 5 19 10 0 6 -12 10 -26 10
-14 0 -23 -4 -19 -10z"/>
<path d="M25140 12267 c0 -23 17 -47 32 -47 12 0 9 45 -4 58 -18 18 -28 14
-28 -11z"/>
<path d="M15740 12210 c0 -16 4 -30 9 -30 5 0 16 -3 24 -6 10 -3 20 3 27 16
14 27 -2 50 -36 50 -20 0 -24 -5 -24 -30z"/>
<path d="M13380 12196 c0 -8 5 -18 10 -21 6 -3 10 1 10 9 0 8 -4 18 -10 21 -5
3 -10 -1 -10 -9z"/>
<path d="M16015 12170 c-4 -6 8 -25 27 -43 18 -18 41 -49 52 -69 24 -48 61
-82 80 -75 22 9 20 40 -4 62 -11 10 -22 26 -25 36 -3 10 -14 21 -25 24 -10 3
-28 21 -39 40 -20 35 -53 46 -66 25z"/>
<path d="M25194 12138 c-5 -17 1 -28 25 -50 18 -16 31 -38 31 -51 0 -29 26
-67 47 -67 25 0 8 60 -27 93 -17 15 -30 36 -30 47 0 49 -33 69 -46 28z"/>
<path d="M15867 12110 c-33 -35 -28 -50 18 -50 40 0 52 23 30 56 -9 13 -16 24
-18 24 -1 0 -15 -13 -30 -30z"/>
<path d="M15967 12038 c-9 -25 53 -101 69 -85 5 4 -54 97 -61 97 -2 0 -5 -6
-8 -12z"/>
<path d="M16064 11912 c15 -44 40 -62 58 -44 18 18 -9 63 -44 73 l-26 7 12
-36z"/>
<path d="M16140 11820 c0 -11 4 -20 8 -20 5 0 17 9 27 20 18 20 17 20 -8 20
-20 0 -27 -5 -27 -20z"/>
<path d="M16222 11783 c-15 -28 -24 -93 -14 -93 5 0 15 7 22 15 7 8 20 15 30
15 18 0 44 -45 35 -61 -4 -5 7 -9 24 -9 16 0 33 5 36 10 12 20 -6 48 -35 53
-25 5 -29 11 -32 44 -3 33 -7 38 -30 41 -18 2 -30 -3 -36 -15z"/>
<path d="M16150 11750 c0 -5 5 -10 10 -10 6 0 10 5 10 10 0 6 -4 10 -10 10 -5
0 -10 -4 -10 -10z"/>
<path d="M16448 11738 c-8 -21 2 -38 33 -53 24 -13 29 -13 29 -2 0 17 -38 67
-50 67 -4 0 -10 -6 -12 -12z"/>
<path d="M16383 11594 c-4 -10 7 -26 31 -46 25 -21 36 -37 33 -49 -5 -17 11
-29 39 -29 24 0 7 91 -23 118 -28 26 -71 29 -80 6z"/>
<path d="M16592 11528 c-7 -7 -12 -29 -12 -50 0 -32 3 -38 20 -38 11 0 23 -7
26 -15 4 -8 18 -15 33 -15 14 0 35 -7 45 -15 26 -19 60 -20 49 -1 -17 28 -128
146 -138 146 -6 0 -16 -5 -23 -12z"/>
<path d="M16600 11380 c0 -5 7 -10 16 -10 8 0 12 5 9 10 -3 6 -10 10 -16 10
-5 0 -9 -4 -9 -10z"/>
<path d="M16764 11365 c-3 -7 2 -25 12 -39 15 -25 15 -28 0 -45 -21 -23 -20
-31 4 -31 10 0 35 14 54 30 l34 30 -27 28 c-31 33 -70 47 -77 27z"/>
<path d="M16930 11300 c0 -5 5 -10 11 -10 5 0 7 5 4 10 -3 6 -8 10 -11 10 -2
0 -4 -4 -4 -10z"/>
<path d="M16998 11232 c12 -12 22 -29 22 -37 0 -8 5 -15 11 -15 28 0 96 -44
112 -72 14 -25 20 -28 32 -18 20 17 19 37 -2 49 -10 5 -18 20 -18 32 0 16 -7
25 -20 27 -11 2 -27 10 -35 17 -8 7 -32 16 -53 19 -21 4 -46 10 -54 13 -11 4
-9 -1 5 -15z"/>
<path d="M16980 11135 c0 -14 5 -25 10 -25 6 0 10 11 10 25 0 14 -4 25 -10 25
-5 0 -10 -11 -10 -25z"/>
<path d="M23723 11127 c-4 -7 -20 -18 -35 -24 -17 -8 -28 -20 -28 -33 0 -21
16 -26 40 -10 10 6 20 4 32 -6 31 -29 53 -14 55 39 2 46 2 47 -27 47 -16 0
-33 -6 -37 -13z"/>
<path d="M17278 11073 c7 -3 16 -2 19 1 4 3 -2 6 -13 5 -11 0 -14 -3 -6 -6z"/>
<path d="M17052 11038 c2 -18 10 -23 33 -23 23 0 31 5 33 23 3 19 -1 22 -33
22 -32 0 -36 -3 -33 -22z"/>
<path d="M23617 11013 c-14 -13 -6 -24 15 -21 27 4 36 28 11 28 -11 0 -23 -3
-26 -7z"/>
<path d="M17352 10993 c2 -11 24 -25 56 -37 43 -15 55 -16 67 -6 20 16 8 29
-42 47 -55 19 -85 17 -81 -4z"/>
<path d="M15116 10971 c5 -5 19 -12 32 -16 16 -5 22 -2 22 9 0 11 -10 16 -32
16 -19 0 -28 -4 -22 -9z"/>
<path d="M23510 10950 c0 -28 27 -36 58 -17 42 25 38 37 -12 37 -40 0 -46 -3
-46 -20z"/>
<path d="M14988 10944 c-7 -9 -23 -27 -36 -41 -37 -40 -15 -51 54 -27 65 22
77 39 45 66 -28 22 -46 23 -63 2z"/>
<path d="M23432 10915 c-17 -14 -41 -25 -54 -25 -14 0 -37 -13 -53 -30 -16
-16 -37 -30 -48 -30 -10 0 -33 -11 -49 -26 -17 -14 -43 -28 -59 -31 -60 -12
-35 -53 33 -53 25 0 42 8 62 29 16 16 39 32 52 35 13 4 24 13 24 20 0 17 22
26 63 26 23 0 43 10 70 36 41 39 43 44 25 62 -18 18 -33 15 -66 -13z"/>
<path d="M17550 10899 c0 -22 134 -58 145 -38 4 5 -7 12 -24 15 -16 4 -32 12
-35 20 -6 17 -86 20 -86 3z"/>
<path d="M17706 10829 c-11 -58 -8 -69 29 -85 62 -25 198 -13 180 17 -4 5 -15
9 -25 9 -11 0 -27 8 -37 19 -23 24 -57 41 -81 41 -11 0 -25 7 -32 15 -19 22
-27 18 -34 -16z"/>
<path d="M15247 10773 c-15 -15 -6 -53 17 -68 48 -32 111 18 76 60 -12 15 -81
21 -93 8z"/>
<path d="M23050 10713 c-8 -3 -19 -12 -23 -19 -4 -7 -24 -21 -43 -30 l-36 -17
24 -13 c36 -21 79 -18 85 6 3 12 18 23 37 28 43 11 44 46 1 49 -16 1 -37 -1
-45 -4z"/>
<path d="M17910 10695 c-19 -23 -2 -35 49 -35 27 0 68 -9 92 -19 46 -21 109
-17 116 6 5 13 -72 37 -87 28 -6 -4 -23 3 -39 14 -35 25 -112 29 -131 6z"/>
<path d="M15390 10667 c0 -8 9 -22 20 -32 16 -14 22 -15 35 -5 11 9 12 17 4
31 -11 22 -59 26 -59 6z"/>
<path d="M22839 10588 c-2 -16 2 -42 6 -46 8 -8 66 30 62 41 -5 17 -67 22 -68
5z"/>
<path d="M22705 10545 c-27 -14 -55 -25 -61 -25 -15 0 -102 -49 -109 -61 -4
-5 -21 -9 -38 -9 -18 0 -38 -4 -45 -8 -15 -10 -7 -38 14 -46 20 -8 63 14 69
35 8 25 39 33 113 30 60 -2 62 -2 62 23 0 28 27 41 66 32 39 -10 48 3 23 30
-28 29 -32 29 -94 -1z"/>
<path d="M15520 10552 c0 -5 6 -15 14 -21 16 -13 49 -4 43 13 -4 14 -57 21
-57 8z"/>
<path d="M15407 10509 c-9 -6 -15 -14 -12 -20 9 -14 51 -11 64 4 20 25 -16 37
-52 16z"/>
<path d="M15625 10470 c-9 -27 0 -37 36 -45 34 -8 35 -10 44 -77 l6 -48 47 3
c26 1 63 -1 83 -6 30 -6 38 -4 43 9 9 25 -10 42 -57 49 -40 7 -96 47 -97 70 0
6 -11 23 -25 38 -31 32 -71 36 -80 7z"/>
<path d="M15209 10420 c-24 -20 -24 -20 -5 -35 30 -23 56 -19 56 9 0 38 -23
50 -51 26z"/>
<path d="M15345 10366 c-49 -23 -50 -24 -55 -77 -5 -49 -7 -53 -36 -61 -17 -4
-38 -16 -48 -27 -16 -17 -16 -20 4 -53 19 -33 22 -35 59 -28 32 6 42 3 55 -12
22 -25 49 -23 102 8 59 34 56 58 -11 102 -59 40 -66 57 -28 74 15 7 31 17 34
22 8 11 101 -11 126 -29 10 -8 35 -15 55 -15 l36 0 -28 28 c-32 31 -64 52 -82
52 -6 0 -19 6 -27 14 -30 27 -101 27 -156 2z"/>
<path d="M22344 10375 c-13 -32 4 -48 43 -42 43 7 58 20 50 41 -9 22 -85 22
-93 1z"/>
<path d="M22190 10345 c-14 -8 -35 -14 -48 -15 -14 0 -26 -9 -31 -24 -12 -30
-33 -38 -82 -30 -26 5 -44 2 -55 -7 -15 -13 -13 -15 22 -22 66 -15 92 -11 134
18 34 23 47 27 86 22 45 -5 104 7 104 22 0 6 -89 52 -100 51 -3 -1 -16 -7 -30
-15z"/>
<path d="M15150 10306 c-9 -12 -17 -13 -36 -4 -30 14 -56 -4 -36 -24 18 -18
14 -46 -6 -53 -40 -12 -52 -112 -18 -140 7 -5 18 -20 25 -32 10 -19 20 -23 64
-23 40 -1 48 -3 35 -11 -36 -21 -15 -53 49 -75 28 -10 36 -9 49 4 14 13 17 13
25 1 5 -8 6 -29 3 -46 -5 -26 -2 -34 12 -39 61 -19 83 -34 86 -61 3 -24 9 -28
53 -38 49 -10 50 -11 52 -50 1 -22 2 -45 2 -52 1 -7 19 -10 59 -6 56 4 57 4
79 -30 12 -19 19 -44 17 -55 -4 -13 3 -26 22 -41 33 -26 54 -27 54 -2 0 25 24
43 52 39 18 -2 24 -10 26 -35 2 -18 6 -34 10 -34 4 -1 22 -3 41 -5 50 -6 51
-14 2 -14 -38 0 -42 -2 -39 -22 5 -33 54 -43 89 -18 19 14 36 18 58 14 73 -15
61 -61 -21 -88 -32 -10 -20 -35 18 -42 26 -5 45 -2 64 10 35 20 103 21 119 2
10 -12 9 -20 -5 -41 -15 -23 -15 -31 -4 -66 23 -68 78 -91 102 -41 18 38 61
42 83 8 21 -32 13 -44 -36 -52 -79 -13 -34 -38 51 -28 45 5 53 4 43 -7 -22
-22 -14 -38 21 -45 23 -4 46 -1 67 10 43 22 54 20 73 -9 9 -14 24 -25 33 -25
31 0 175 -70 181 -88 2 -6 -18 -13 -45 -17 -76 -10 -82 -14 -56 -35 17 -13 33
-16 66 -13 38 5 45 2 60 -21 11 -16 33 -30 60 -37 46 -11 67 -25 83 -54 7 -12
24 -21 43 -23 30 -3 42 10 21 23 -5 3 -10 13 -10 22 0 13 8 14 48 9 26 -4 70
-14 97 -23 28 -9 56 -17 63 -19 8 -2 12 -12 10 -21 -2 -14 -15 -19 -53 -21
-28 -1 -60 -5 -73 -7 -41 -10 -12 -25 47 -25 54 0 59 -2 101 -46 25 -25 55
-50 68 -55 12 -5 22 -15 22 -24 0 -19 26 -20 33 -1 3 7 20 16 38 20 25 5 30 9
21 18 -20 20 -14 38 13 38 18 0 28 -7 35 -24 8 -21 16 -24 79 -28 54 -3 75 -9
93 -25 13 -11 41 -30 64 -41 23 -12 49 -33 58 -48 16 -23 23 -26 56 -21 29 4
40 1 45 -11 6 -17 -10 -32 -36 -32 -8 0 -24 -6 -34 -14 -18 -13 -18 -15 -2
-40 13 -19 26 -26 51 -26 73 0 129 -13 133 -31 6 -21 32 -29 101 -29 58 0 67
11 23 30 -37 15 -46 44 -17 58 42 21 138 21 183 1 23 -11 45 -23 48 -29 10
-16 -24 -24 -51 -11 -21 9 -30 7 -54 -11 -35 -26 -37 -38 -10 -63 18 -17 25
-17 56 -6 29 10 45 11 80 1 24 -7 44 -15 44 -19 0 -13 -64 -34 -101 -34 -78 0
-55 -29 35 -46 33 -6 69 -20 80 -30 16 -15 42 -22 114 -27 97 -7 125 -21 102
-49 -9 -11 -34 -15 -101 -15 -78 0 -91 3 -108 22 -18 18 -36 22 -123 29 -57 4
-121 13 -144 20 -23 7 -49 9 -59 6 -28 -11 -1 -34 51 -42 25 -3 61 -17 81 -31
20 -13 44 -24 55 -24 10 0 36 -11 58 -25 22 -14 46 -25 53 -25 14 0 166 -51
225 -76 18 -7 75 -21 125 -30 50 -8 96 -19 102 -23 24 -18 446 -79 595 -86 74
-4 194 -14 265 -23 162 -21 915 -25 1030 -5 39 7 138 17 220 23 83 7 202 21
265 31 63 11 157 27 208 34 51 8 116 21 145 30 28 8 105 22 170 30 65 8 133
19 150 24 65 21 246 63 392 92 83 16 173 35 200 43 28 9 81 23 119 33 43 11
71 24 73 34 3 11 18 15 51 16 26 0 89 15 140 32 51 17 99 31 106 31 7 0 25 9
39 20 13 11 49 25 78 31 30 6 62 18 71 26 9 8 21 12 26 9 5 -3 15 1 22 9 7 8
23 15 36 15 23 0 41 16 30 27 -3 3 -27 6 -53 7 -41 1 -48 4 -51 22 -3 18 6 25
45 40 110 40 113 42 119 73 5 23 14 33 40 41 19 7 39 20 44 31 6 10 15 19 20
19 18 0 10 -32 -16 -63 -19 -22 -24 -38 -20 -57 4 -24 1 -28 -32 -36 -27 -7
-38 -15 -40 -31 -3 -20 1 -23 30 -23 18 0 47 7 63 16 17 9 48 22 70 29 47 14
52 38 10 45 -21 4 -31 11 -33 28 -3 18 1 22 25 22 43 0 73 11 73 26 0 8 15 23
33 34 25 15 33 28 37 57 5 37 6 38 61 49 64 13 79 20 79 38 0 27 25 36 49 20
20 -14 24 -14 39 -1 9 8 33 22 52 32 46 23 117 81 131 107 6 11 8 35 4 54 -5
31 -9 34 -39 34 -19 0 -39 -7 -46 -15 -7 -8 -23 -15 -35 -15 -23 0 -35 -17
-35 -51 0 -12 -7 -19 -20 -19 -29 0 -102 -30 -127 -53 -18 -16 -39 -21 -105
-23 -82 -3 -157 -26 -159 -48 -1 -6 -2 -22 -2 -36 -2 -21 -7 -24 -39 -25 -21
-1 -47 -10 -57 -19 -15 -14 -41 -18 -113 -20 -73 -2 -102 -8 -133 -24 -47 -26
-51 -26 -89 -7 -36 19 -61 19 -94 1 -62 -34 -171 -69 -249 -80 -52 -8 -90 -20
-103 -31 -15 -14 -42 -19 -122 -23 -79 -3 -113 -9 -148 -26 -25 -13 -70 -28
-100 -34 -129 -28 -349 -62 -396 -62 -34 0 -56 -5 -64 -15 -9 -11 -34 -15 -94
-15 -44 0 -106 -7 -136 -16 -30 -9 -100 -17 -155 -19 -55 -2 -192 -7 -305 -10
-114 -4 -225 -12 -250 -19 -25 -7 -70 -12 -100 -11 -30 1 -167 4 -305 8 -485
14 -571 18 -645 32 -41 8 -138 19 -215 25 -77 5 -162 14 -190 19 -109 20 -212
42 -260 56 -27 8 -96 19 -151 25 -56 5 -114 15 -130 21 -36 15 -103 27 -214
38 -88 9 -120 18 -120 31 0 4 -12 12 -27 18 -43 17 -192 44 -202 37 -6 -3 -14
2 -19 10 -5 9 -19 18 -33 19 -13 2 -42 15 -63 29 -23 16 -52 27 -73 27 -18 0
-66 11 -105 25 -39 14 -79 25 -89 25 -9 0 -56 18 -103 40 -47 22 -89 40 -93
40 -5 0 -39 16 -77 35 -39 19 -76 35 -83 35 -7 0 -23 10 -35 22 -17 17 -32 22
-67 20 -24 -1 -52 -4 -62 -7 -10 -3 -35 8 -62 29 -25 19 -63 44 -84 56 -118
64 -169 90 -181 90 -7 0 -24 7 -38 17 -14 9 -40 16 -59 15 -19 -1 -43 7 -58
18 -14 11 -35 20 -47 20 -41 0 -109 49 -111 79 0 9 -26 37 -59 64 -56 45 -92
58 -105 37 -3 -5 -17 -10 -30 -10 -13 0 -27 5 -30 10 -3 6 -15 10 -26 10 -24
0 -99 37 -99 49 0 5 -11 12 -25 15 -13 3 -30 16 -36 29 -7 12 -32 41 -57 65
-43 41 -47 43 -101 40 -73 -3 -85 5 -77 52 9 56 -14 71 -55 36 -35 -30 -72
-31 -77 -2 -5 22 13 36 46 36 12 0 22 6 22 13 0 38 -68 52 -77 16 -5 -17 -12
-20 -46 -17 -35 3 -42 7 -47 28 -5 21 -12 25 -50 28 -25 2 -52 9 -60 16 -8 8
-29 21 -47 30 -43 22 -51 51 -23 88 12 16 19 33 15 36 -3 4 -27 14 -53 23 -46
16 -47 16 -47 60 0 43 -1 44 -34 47 l-33 3 6 -54 c4 -30 4 -57 -1 -60 -4 -3
-31 -1 -59 5 -48 9 -52 13 -64 49 -12 35 -11 41 6 60 13 15 26 19 45 15 34 -6
50 11 38 42 -11 28 -17 28 -41 -3 -11 -14 -24 -22 -29 -19 -6 3 -31 9 -57 12
-37 6 -47 12 -52 30 -3 12 -20 31 -37 42 -18 11 -33 24 -33 29 0 5 -12 12 -27
16 -70 17 -72 65 -5 149 18 22 20 31 11 42 -15 18 -33 18 -49 0z m1870 -1386
c0 -5 -5 -10 -11 -10 -5 0 -7 5 -4 10 3 6 8 10 11 10 2 0 4 -4 4 -10z m5998
-442 c2 -11 -5 -21 -20 -27 -13 -5 -32 -18 -42 -30 -14 -16 -31 -21 -65 -21
-55 0 -85 15 -61 30 8 5 31 12 52 15 20 4 49 18 63 31 30 28 68 29 73 2z m33
-130 c-10 -28 -29 -35 -37 -13 -7 17 10 35 33 35 9 0 10 -7 4 -22z m-225 -75
c-10 -10 -19 5 -10 18 6 11 8 11 12 0 2 -7 1 -15 -2 -18z m135 17 c20 -11 26
-54 9 -65 -13 -8 -66 21 -74 41 -12 32 23 46 65 24z m177 -2 c-5 -15 -42 -22
-64 -14 -25 10 -5 26 32 26 24 0 34 -4 32 -12z m-371 -114 c-3 -3 -12 -4 -19
-1 -8 3 -5 6 6 6 11 1 17 -2 13 -5z"/>
<path d="M21846 10221 c-38 -6 -39 -7 -22 -23 10 -10 25 -18 34 -18 17 0 82
36 82 45 0 6 -40 4 -94 -4z"/>
<path d="M18765 10201 c-7 -13 17 -24 40 -19 9 1 16 8 16 13 0 14 -48 19 -56
6z"/>
<path d="M21740 10145 c0 -8 8 -15 19 -15 10 0 24 7 31 15 11 13 8 15 -19 15
-21 0 -31 -5 -31 -15z"/>
<path d="M16054 10139 c-9 -16 15 -29 54 -29 41 0 41 15 1 29 -40 14 -46 14
-55 0z"/>
<path d="M21484 10125 c-18 -14 -17 -14 12 -15 17 0 37 7 44 15 10 13 9 15
-12 15 -13 0 -33 -7 -44 -15z"/>
<path d="M24290 10120 c0 -5 5 -10 10 -10 6 0 10 5 10 10 0 6 -4 10 -10 10 -5
0 -10 -4 -10 -10z"/>
<path d="M24270 10050 c0 -16 5 -21 23 -18 12 2 22 10 22 18 0 8 -10 16 -22
18 -18 3 -23 -2 -23 -18z"/>
<path d="M16248 10033 c-42 -11 -9 -33 47 -31 17 0 35 -1 40 -3 6 -2 11 0 13
5 2 6 -16 16 -40 23 -24 7 -43 12 -43 12 0 -1 -8 -3 -17 -6z"/>
<path d="M24175 9990 c3 -5 10 -10 16 -10 5 0 9 5 9 10 0 6 -7 10 -16 10 -8 0
-12 -4 -9 -10z"/>
<path d="M15654 9966 c-9 -24 0 -51 19 -54 11 -2 17 3 17 16 0 44 -24 69 -36
38z"/>
<path d="M16355 9964 c-10 -10 -15 -29 -13 -48 3 -31 3 -31 73 -37 39 -3 66
-6 62 -7 -4 -1 -3 -11 3 -23 7 -13 19 -19 33 -17 37 5 31 32 -13 57 -23 13
-55 38 -72 57 -35 38 -49 41 -73 18z"/>
<path d="M26281 9956 c-10 -11 -10 -20 0 -37 11 -21 13 -21 24 -5 13 17 9 56
-5 56 -4 0 -13 -6 -19 -14z"/>
<path d="M15884 9945 c-10 -24 12 -42 34 -29 24 16 21 38 -6 42 -13 2 -25 -3
-28 -13z"/>
<path d="M16122 9951 c-8 -4 -16 -27 -19 -50 -5 -39 -5 -41 21 -41 46 0 69 18
61 48 -12 47 -34 62 -63 43z"/>
<path d="M24070 9941 c0 -15 16 -22 34 -15 25 9 19 24 -9 24 -14 0 -25 -4 -25
-9z"/>
<path d="M24391 9874 c-19 -19 -42 -34 -53 -34 -11 0 -26 -6 -34 -14 -7 -8
-32 -17 -54 -21 -32 -5 -39 -10 -37 -28 2 -16 -5 -22 -31 -28 -18 -3 -41 -14
-51 -23 -11 -10 -40 -18 -70 -20 -58 -3 -69 -9 -52 -30 19 -23 4 -36 -38 -36
-22 0 -49 -8 -62 -18 -13 -11 -35 -22 -49 -25 -14 -3 -29 -16 -35 -28 -11 -23
-93 -55 -162 -62 -48 -5 -77 -23 -68 -45 7 -20 -12 -32 -50 -32 -16 0 -43 -9
-60 -20 -19 -13 -47 -20 -77 -20 -55 0 -68 -13 -34 -35 13 -9 26 -24 29 -35 4
-16 11 -18 48 -13 24 3 55 14 68 24 30 24 109 25 149 2 31 -18 62 -12 62 11 0
8 -10 16 -22 18 -28 4 -36 28 -11 34 11 3 24 19 30 35 9 24 17 29 45 29 18 0
39 -4 46 -8 16 -11 132 45 132 63 0 19 37 41 82 49 31 6 39 3 57 -20 23 -29
51 -27 51 5 0 13 -8 21 -22 23 -30 4 -30 22 0 26 13 2 27 14 32 28 6 15 17 24
31 24 11 0 35 15 51 32 l30 32 18 -22 c32 -38 63 -26 154 62 67 66 73 111 19
140 -28 14 -30 13 -62 -20z"/>
<path d="M15717 9873 c-13 -12 -7 -53 7 -53 8 0 28 -11 44 -25 57 -48 59 -17
4 43 -41 44 -44 46 -55 35z"/>
<path d="M26380 9731 c0 -12 5 -21 10 -21 6 0 10 6 10 14 0 8 -4 18 -10 21 -5
3 -10 -3 -10 -14z"/>
<path d="M16375 9720 c-3 -5 6 -26 21 -45 24 -32 31 -35 78 -35 39 1 47 3 34
11 -10 5 -18 18 -18 28 0 36 -97 71 -115 41z"/>
<path d="M15855 9670 c-3 -5 1 -10 9 -10 9 0 16 5 16 10 0 6 -4 10 -9 10 -6 0
-13 -4 -16 -10z"/>
<path d="M16200 9670 c0 -5 7 -10 15 -10 8 0 15 5 15 10 0 6 -7 10 -15 10 -8
0 -15 -4 -15 -10z"/>
<path d="M24235 9611 c-8 -15 3 -31 21 -31 9 0 14 7 12 17 -4 20 -24 28 -33
14z"/>
<path d="M17072 9589 c2 -6 8 -10 13 -10 5 0 11 4 13 10 2 6 -4 11 -13 11 -9
0 -15 -5 -13 -11z"/>
<path d="M16167 9564 c-15 -15 8 -24 61 -24 52 1 55 2 38 15 -20 15 -87 21
-99 9z"/>
<path d="M17165 9543 c-14 -11 -36 -74 -29 -84 8 -13 69 -11 99 3 18 8 25 19
25 39 0 15 -3 30 -8 33 -16 10 -78 16 -87 9z"/>
<path d="M26495 9518 c-4 -10 -4 -26 0 -35 8 -17 8 -17 12 0 3 9 3 25 0 35 -4
16 -4 16 -12 0z"/>
<path d="M16905 9436 c-8 -13 -12 -31 -9 -40 7 -19 50 -39 65 -30 12 7 11 51
-1 75 -14 26 -36 24 -55 -5z"/>
<path d="M23783 9398 c-18 -5 -33 -13 -33 -18 0 -17 60 -11 67 5 8 22 3 23
-34 13z"/>
<path d="M17253 9323 c-24 -9 -13 -31 19 -37 35 -7 54 5 45 28 -6 15 -38 20
-64 9z"/>
<path d="M23205 9296 c-27 -13 -60 -35 -72 -50 -13 -14 -28 -26 -34 -26 -5 0
-7 -4 -4 -10 3 -5 30 -10 60 -10 48 0 57 4 85 33 16 17 33 40 36 50 3 9 10 17
15 17 5 0 9 5 9 10 0 17 -42 10 -95 -14z"/>
<path d="M16040 9302 c0 -13 25 -22 63 -22 40 0 24 16 -25 25 -24 5 -38 3 -38
-3z"/>
<path d="M23356 9291 c-35 -7 -41 -20 -23 -45 11 -15 18 -16 34 -8 20 11 37
49 25 55 -4 2 -20 1 -36 -2z"/>
<path d="M23500 9243 c-33 -14 -34 -16 -15 -29 27 -20 52 -17 65 6 11 20 6 41
-8 39 -4 0 -23 -7 -42 -16z"/>
<path d="M17370 9226 c0 -18 16 -29 30 -21 13 8 1 35 -16 35 -8 0 -14 -6 -14
-14z"/>
<path d="M24708 9223 c-8 -10 -18 -26 -21 -35 -7 -21 -44 -24 -80 -7 -21 9
-28 7 -50 -15 -14 -14 -36 -26 -49 -26 -13 0 -39 -6 -58 -13 -41 -14 -140 -77
-140 -88 0 -4 -12 -14 -27 -21 -15 -7 -33 -24 -40 -38 -9 -19 -19 -24 -38 -22
-14 2 -48 -2 -75 -9 -40 -10 -52 -10 -65 1 -23 19 -27 8 -20 -44 7 -41 10 -46
34 -46 54 1 124 27 148 54 21 25 28 27 66 21 23 -4 49 -14 59 -22 22 -20 34 2
17 33 -15 29 -8 39 18 23 16 -10 26 -7 60 14 25 16 43 35 45 49 2 15 13 24 35
30 21 6 38 19 48 38 25 48 85 66 85 25 0 -8 2 -15 5 -15 4 0 78 32 115 50 8 4
17 18 18 30 7 44 -60 68 -90 33z"/>
<path d="M17955 9180 c-22 -25 -18 -30 18 -23 18 4 27 11 25 21 -5 24 -23 25
-43 2z"/>
<path d="M22900 9174 c-19 -7 -45 -13 -57 -13 -22 -1 -34 -21 -13 -21 6 0 10
-4 10 -10 0 -17 -38 -11 -50 8 -9 15 -13 14 -38 -14 -33 -39 -86 -64 -130 -62
-53 2 -62 -19 -17 -38 35 -14 39 -14 47 0 5 9 18 16 28 16 11 0 29 9 40 20 25
25 45 25 62 1 7 -10 23 -21 35 -25 19 -6 25 -2 34 21 15 41 38 63 88 85 24 10
42 20 40 22 -20 18 -48 21 -79 10z"/>
<path d="M23030 9151 c0 -24 58 -74 77 -66 8 3 27 8 41 12 15 3 35 12 46 19
17 11 15 13 -20 20 -22 4 -51 13 -66 20 -40 21 -78 18 -78 -5z"/>
<path d="M17868 9113 c7 -3 16 -2 19 1 4 3 -2 6 -13 5 -11 0 -14 -3 -6 -6z"/>
<path d="M24835 9111 c-3 -5 -1 -12 5 -16 5 -3 10 1 10 9 0 18 -6 21 -15 7z"/>
<path d="M16474 9039 c-7 -12 21 -39 41 -39 7 0 20 -9 30 -20 10 -11 29 -20
42 -20 31 0 25 22 -8 30 -17 4 -24 13 -24 30 0 21 -6 25 -37 28 -20 2 -39 -2
-44 -9z"/>
<path d="M23970 9020 c0 -5 7 -10 15 -10 8 0 15 5 15 10 0 6 -7 10 -15 10 -8
0 -15 -4 -15 -10z"/>
<path d="M18505 9010 c-4 -6 8 -10 29 -10 19 0 38 5 41 10 4 6 -8 10 -29 10
-19 0 -38 -4 -41 -10z"/>
<path d="M24760 9001 c-12 -24 -13 -31 -1 -31 12 0 41 29 41 41 0 17 -29 9
-40 -10z"/>
<path d="M24537 8983 c-28 -7 -14 -28 22 -31 30 -3 32 -2 21 17 -11 22 -12 22
-43 14z"/>
<path d="M22687 8923 c-14 -13 -6 -31 15 -37 27 -7 41 5 32 27 -6 17 -35 23
-47 10z"/>
<path d="M24445 8921 c-7 -12 12 -24 25 -16 11 7 4 25 -10 25 -5 0 -11 -4 -15
-9z"/>
<path d="M22800 8910 c0 -5 5 -10 10 -10 6 0 10 5 10 10 0 6 -4 10 -10 10 -5
0 -10 -4 -10 -10z"/>
<path d="M18275 8900 c3 -5 15 -10 25 -10 10 0 22 5 25 10 4 6 -7 10 -25 10
-18 0 -29 -4 -25 -10z"/>
<path d="M19115 8890 c4 -6 53 -10 115 -10 62 0 111 4 115 10 4 6 -37 10 -115
10 -78 0 -119 -4 -115 -10z"/>
<path d="M23520 8880 c0 -5 11 -10 24 -10 14 0 28 5 31 10 4 6 -7 10 -24 10
-17 0 -31 -4 -31 -10z"/>
<path d="M24511 8866 c-7 -8 -8 -16 -4 -19 13 -8 55 12 48 23 -9 14 -31 12
-44 -4z"/>
<path d="M24405 8810 c-3 -5 1 -10 9 -10 9 0 16 5 16 10 0 6 -4 10 -9 10 -6 0
-13 -4 -16 -10z"/>
<path d="M23999 8721 c-18 -15 -21 -22 -13 -31 19 -19 54 -2 54 26 0 29 -10
30 -41 5z"/>
<path d="M24155 8700 c-4 -6 3 -10 14 -10 25 0 27 6 6 13 -8 4 -17 2 -20 -3z"/>
<path d="M22998 8693 c7 -3 16 -2 19 1 4 3 -2 6 -13 5 -11 0 -14 -3 -6 -6z"/>
<path d="M24075 8651 c-3 -5 -2 -12 2 -14 9 -5 53 10 53 18 0 9 -49 5 -55 -4z"/>
<path d="M23885 8640 c-3 -5 3 -10 14 -10 12 0 21 5 21 10 0 6 -6 10 -14 10
-8 0 -18 -4 -21 -10z"/>
<path d="M23960 8605 c0 -26 15 -32 40 -15 13 9 12 12 -4 25 -28 21 -36 19
-36 -10z"/>
<path d="M23743 8604 c-8 -21 0 -26 52 -31 27 -4 45 -11 45 -18 0 -16 19 -23
43 -17 25 6 21 21 -10 34 -16 7 -35 17 -43 24 -26 20 -80 26 -87 8z"/>
<path d="M17395 8570 c-8 -13 37 -31 49 -20 4 5 5 13 2 19 -9 14 -43 14 -51 1z"/>
<path d="M23697 8496 c-5 -13 2 -16 34 -16 28 0 39 4 37 13 -7 19 -64 21 -71
3z"/>
<path d="M17655 8439 c-8 -12 8 -16 35 -9 l25 6 -28 6 c-15 3 -30 2 -32 -3z"/>
<path d="M23550 8435 c-11 -13 -8 -15 13 -15 32 0 57 9 57 21 0 15 -57 10 -70
-6z"/>
<path d="M17856 8182 c-8 -14 58 -51 105 -58 34 -6 39 -4 39 13 0 14 -10 23
-37 31 -69 19 -101 23 -107 14z"/>
</g>
</svg>
